<svg id="Icons" enable-background="new 0 0 512 512" height="512" viewBox="0 0 512 512" width="512" xmlns="http://www.w3.org/2000/svg"><g><path d="m512 256c0 70.692-28.654 134.692-74.981 181.019s-110.327 74.981-181.019 74.981-134.692-28.654-181.019-74.981-74.981-110.327-74.981-181.019 28.654-134.692 74.981-181.019 110.327-74.981 181.019-74.981 134.692 28.654 181.019 74.981 74.981 110.327 74.981 181.019z" fill="#e8f3fc"/><path d="m253.859 435.118c-44.787 0-85.399-18.219-114.814-47.634s-47.633-70.027-47.633-114.814 18.218-85.399 47.633-114.815 70.027-47.634 114.814-47.634 85.399 18.219 114.814 47.634 47.633 70.028 47.633 114.815-18.218 85.399-47.633 114.815c-29.415 29.415-70.026 47.633-114.814 47.633z" fill="#052481"/><path d="m385.485 272.67c0 36.347-14.733 69.253-38.552 93.072s-56.725 38.552-93.072 38.552-69.253-14.733-93.072-38.552-38.552-56.725-38.552-93.072 14.733-69.253 38.552-93.072 56.725-38.552 93.072-38.552 69.253 14.733 93.072 38.552c23.82 23.819 38.552 56.725 38.552 93.072z" fill="#f4b500"/><path d="m253.861 405.872c-36.724 0-70.025-14.939-94.144-39.058-24.12-24.12-39.058-57.42-39.058-94.144s14.939-70.024 39.058-94.144 57.42-39.058 94.144-39.058 70.025 14.939 94.144 39.058c24.12 24.12 39.058 57.42 39.058 94.144s-14.939 70.024-39.058 94.144c-24.12 24.12-57.42 39.058-94.144 39.058zm0-263.247c-35.854 0-68.365 14.585-91.913 38.133s-38.133 56.059-38.133 91.913 14.585 68.365 38.133 91.913 56.059 38.133 91.913 38.133 68.366-14.585 91.914-38.133 38.133-56.059 38.133-91.913-14.585-68.365-38.133-91.913c-23.549-23.549-56.06-38.133-91.914-38.133z" fill="#fff"/><path d="m126.844 426.878c-1.393-1.393-2.09-3.22-2.09-5.046s.697-3.653 2.09-5.046l13.176-13.176 13.176-13.176c1.393-1.393 3.22-2.09 5.046-2.09s3.653.697 5.046 2.09c1.393 1.393 2.09 3.22 2.09 5.046s-.697 3.653-2.09 5.046l-13.176 13.176-13.176 13.176c-1.393 1.393-3.22 2.09-5.046 2.09s-3.653-.697-5.046-2.09z" fill="#052481"/><path d="m377.706 426.878c1.393-1.393 2.09-3.22 2.09-5.046s-.697-3.653-2.09-5.046l-13.176-13.176-13.176-13.176c-1.393-1.393-3.22-2.09-5.046-2.09s-3.653.697-5.046 2.09c-1.393 1.393-2.09 3.22-2.09 5.046s.697 3.653 2.09 5.046l13.176 13.176 13.176 13.176c1.393 1.393 3.22 2.09 5.046 2.09s3.653-.697 5.046-2.09z" fill="#052481"/><path d="m266.091 272.029c0 3.971-1.61 7.567-4.212 10.17s-6.198 4.212-10.17 4.212-7.567-1.61-10.17-4.212c-2.603-2.603-4.212-6.198-4.212-10.17 0-3.971 1.61-7.567 4.212-10.17 2.603-2.603 6.198-4.212 10.17-4.212s7.567 1.61 10.17 4.212 4.212 6.199 4.212 10.17z" fill="#052481"/><path d="m257.552 236.784c0 10.425-.654 19.863-1.711 26.695s-2.518 11.058-4.131 11.058-3.074-4.226-4.131-11.058-1.711-16.27-1.711-26.695 1.461-19.863 2.921-26.695c1.461-6.832 2.921-11.058 2.921-11.058s1.461 4.226 2.921 11.058 2.921 16.27 2.921 26.695z" fill="#052481"/><path d="m277.654 254.658c-5.709 6.096-11.355 11.168-15.868 14.44s-7.893 4.745-9.071 3.642.07-4.572 3.04-9.29 7.661-10.684 13.37-16.78 11.944-10.617 16.751-13.613 8.188-4.469 8.188-4.469-1.248 3.469-3.923 8.463-6.778 11.511-12.487 17.607z" fill="#052481"/><g fill="#fff"><path d="m258.342 176.709c0 1.675-.679 3.192-1.777 4.29s-2.615 1.777-4.29 1.777-3.192-.679-4.29-1.777-1.777-2.615-1.777-4.29.679-3.192 1.777-4.29 2.615-1.777 4.29-1.777 3.192.679 4.29 1.777c1.098 1.097 1.777 2.614 1.777 4.29z"/><path d="m258.342 367.046c0 1.675-.679 3.192-1.777 4.29s-2.615 1.777-4.29 1.777-3.192-.679-4.29-1.777-1.777-2.615-1.777-4.29.679-3.192 1.777-4.29 2.615-1.777 4.29-1.777 3.192.679 4.29 1.777c1.098 1.097 1.777 2.614 1.777 4.29z"/><path d="m189.271 200.293c1.185 1.185 1.777 2.738 1.777 4.29 0 1.553-.592 3.106-1.777 4.29s-2.738 1.777-4.29 1.777c-1.553 0-3.106-.592-4.29-1.777-1.185-1.185-1.777-2.738-1.777-4.29 0-1.553.592-3.106 1.777-4.29 1.185-1.185 2.738-1.777 4.29-1.777 1.553 0 3.105.592 4.29 1.777z"/><path d="m323.86 334.881c1.185 1.185 1.777 2.738 1.777 4.29 0 1.553-.592 3.106-1.777 4.29-1.185 1.185-2.738 1.777-4.29 1.777-1.553 0-3.106-.592-4.29-1.777-1.185-1.185-1.777-2.738-1.777-4.29 0-1.553.592-3.106 1.777-4.29 1.185-1.185 2.738-1.777 4.29-1.777s3.105.593 4.29 1.777z"/><path d="m157.107 265.81c1.675 0 3.192.679 4.29 1.777s1.777 2.615 1.777 4.29-.679 3.192-1.777 4.29-2.615 1.777-4.29 1.777-3.192-.679-4.29-1.777-1.777-2.615-1.777-4.29.679-3.192 1.777-4.29c1.097-1.098 2.614-1.777 4.29-1.777z"/><path d="m347.444 265.81c1.675 0 3.192.679 4.29 1.777s1.777 2.615 1.777 4.29-.679 3.192-1.777 4.29-2.615 1.777-4.29 1.777-3.192-.679-4.29-1.777-1.777-2.615-1.777-4.29.679-3.192 1.777-4.29c1.097-1.098 2.614-1.777 4.29-1.777z"/><path d="m180.69 334.881c1.185-1.185 2.738-1.777 4.29-1.777 1.553 0 3.106.592 4.29 1.777 1.185 1.185 1.777 2.738 1.777 4.29 0 1.553-.592 3.106-1.777 4.29-1.185 1.185-2.738 1.777-4.29 1.777-1.553 0-3.106-.592-4.29-1.777-1.185-1.185-1.777-2.738-1.777-4.29s.593-3.105 1.777-4.29z"/><path d="m315.279 200.293c1.185-1.185 2.738-1.777 4.29-1.777 1.553 0 3.106.592 4.29 1.777 1.185 1.185 1.777 2.738 1.777 4.29 0 1.553-.592 3.106-1.777 4.29-1.185 1.185-2.738 1.777-4.29 1.777-1.553 0-3.106-.592-4.29-1.777-1.185-1.185-1.777-2.738-1.777-4.29 0-1.553.592-3.106 1.777-4.29z"/><path d="m157.107 265.81c1.675 0 3.192.679 4.29 1.777s1.777 2.615 1.777 4.29-.679 3.192-1.777 4.29-2.615 1.777-4.29 1.777-3.192-.679-4.29-1.777-1.777-2.615-1.777-4.29.679-3.192 1.777-4.29c1.097-1.098 2.614-1.777 4.29-1.777z"/><path d="m347.444 265.81c1.675 0 3.192.679 4.29 1.777s1.777 2.615 1.777 4.29-.679 3.192-1.777 4.29-2.615 1.777-4.29 1.777-3.192-.679-4.29-1.777-1.777-2.615-1.777-4.29.679-3.192 1.777-4.29c1.097-1.098 2.614-1.777 4.29-1.777z"/></g><g><path d="m137.472 88.889c-14.299 8.565-23.773 22.115-27.53 37.099-3.758 14.984-1.799 31.401 6.766 45.7l51.782-31.018 51.782-31.018c-8.565-14.299-22.116-23.773-37.099-27.53-14.985-3.757-31.402-1.798-45.701 6.767z" fill="#5488e2"/><path d="m370.25 88.889c14.299 8.565 23.773 22.115 27.53 37.099 3.758 14.984 1.799 31.401-6.766 45.7l-51.782-31.018-51.782-31.018c8.565-14.299 22.116-23.773 37.099-27.53 14.985-3.757 31.402-1.798 45.701 6.767z" fill="#5488e2"/><g fill="#fff"><path d="m141.27 120.627c0 2.427-.984 4.623-2.574 6.214-1.59 1.59-3.787 2.574-6.214 2.574s-4.623-.984-6.214-2.574-2.574-3.787-2.574-6.214.984-4.623 2.574-6.214 3.787-2.574 6.214-2.574 4.623.984 6.214 2.574c1.59 1.59 2.574 3.787 2.574 6.214z"/><path d="m341.376 103.052c0 2.427-.984 4.623-2.574 6.214-1.59 1.59-3.787 2.574-6.214 2.574s-4.623-.984-6.214-2.574c-1.59-1.59-2.574-3.787-2.574-6.214s.984-4.623 2.574-6.214 3.787-2.574 6.214-2.574 4.623.984 6.214 2.574 2.574 3.787 2.574 6.214z"/></g></g></g></svg>