<svg id="Icons" enable-background="new 0 0 512 512" height="512" viewBox="0 0 512 512" width="512" xmlns="http://www.w3.org/2000/svg"><g><g><circle cx="256" cy="256" fill="#14a36d" r="255.984"/><path d="m1.347 282.164c8.042 77.7 51.431 150.746 123.708 193.783 121.483 72.322 278.585 32.475 350.908-88.998 26.213-44.029 37.697-92.74 35.89-140.399-5.117-1.288-10.094-3.083-14.863-5.402-25.209-12.249-46.015-37.429-74.047-37.128-19.228.199-36.17 12.97-48.553 27.679-12.381 14.729-21.752 31.875-34.929 45.891-19.987 21.273-48.546 34.262-77.722 35.373s-58.628-9.68-80.183-29.377c-15.706-14.372-30.184-34.558-51.481-34.943-28.949-.51-47.75 36.653-76.701 36.907-9.34.077-18.201-3.836-27.405-5.291-8.287-1.326-16.669-.533-24.622 1.905z" fill="#15be79"/></g><g><g><path d="m185.805 283.921v143.984c0 9.691-7.854 17.559-17.545 17.559h-59.519c-9.704 0-17.559-7.868-17.559-17.559v-143.984c0-5.498 1.864-10.663 5.059-14.776s7.721-7.202 13.046-8.56c5.205-1.331 8.932-5.871 9.225-11.235l3.461-63.645h-.493c-3.421 0-5.964-3.195-5.178-6.536l3.581-15.402c.559-2.41 2.702-4.127 5.178-4.127h26.864c2.476 0 4.633 1.717 5.192 4.127l3.581 15.402c.772 3.341-1.757 6.536-5.192 6.536h-.493l3.461 63.645c.147 2.689 1.158 5.165 2.769 7.135 1.624 1.97 3.86 3.435 6.456 4.1 10.665 2.729 18.106 12.327 18.106 23.336z" fill="#6b250c"/><path d="m185.805 283.921v143.984c0 9.691-7.854 17.559-17.545 17.559h-42.972c-9.691 0-17.546-7.868-17.546-17.559v-138.552c0-5.005 2.023-9.531 5.298-12.82 3.288-3.275 7.814-5.298 12.806-5.298 5.192-1.331 8.932-5.871 9.225-11.235l3.448-78.835c0-.013 0-.013 0-.027 0-.107-.093-.2-.213-.2-3.568 0-6.204-3.315-5.391-6.789l3.368-14.51h15.642c2.476 0 4.633 1.717 5.192 4.127l3.581 15.402c.772 3.341-1.757 6.536-5.192 6.536h-.493l3.461 63.645c.147 2.689 1.158 5.165 2.769 7.135 1.624 1.97 3.86 3.435 6.456 4.1 10.665 2.73 18.106 12.328 18.106 23.337z" fill="#7a2b13"/><path d="m162.682 156.338v2.982c0 2.463-1.984 4.446-4.433 4.446h-39.497c-2.449 0-4.446-1.984-4.446-4.446v-2.982c0-2.463 1.997-4.446 4.446-4.446h39.497c2.45-.001 4.433 1.983 4.433 4.446z" fill="#ea792e"/><path d="m162.682 156.338v2.982c0 2.463-1.984 4.446-4.433 4.446h-29.886c-2.449 0-4.433-1.984-4.433-4.446v-2.982c0-2.463 1.984-4.446 4.433-4.446h29.886c2.45-.001 4.433 1.983 4.433 4.446z" fill="#f39e22"/><g fill="#962a11"><ellipse cx="160.787" cy="272.27" rx="8.822" ry="14.766" transform="matrix(.707 -.707 .707 .707 -145.43 193.44)"/><ellipse cx="175.355" cy="296.808" rx="6.27" ry="10.156" transform="matrix(.979 -.204 .204 .979 -56.882 42.033)"/><path d="m143.29 416.955h-35.547v10.951h35.547c3.024 0 5.475-2.451 5.475-5.475.001-3.025-2.451-5.476-5.475-5.476z"/><path d="m171.126 427.906h-9.377c-3.024 0-5.475-2.451-5.475-5.475 0-3.024 2.451-5.476 5.475-5.476h9.377c3.024 0 5.476 2.451 5.476 5.476-.001 3.023-2.452 5.475-5.476 5.475z"/><path d="m151.168 194.805c2.435 0 4.445 1.904 4.577 4.335l1.78 32.74c.143 2.625-1.948 4.832-4.577 4.832h-1.78c-2.531 0-4.584-2.052-4.584-4.584v-32.74c.001-2.531 2.053-4.583 4.584-4.583z"/></g></g><g><path d="m185.805 319.638v76.824h-94.623v-76.824l16.561-9.319 30.751-17.305z" fill="#f39e22"/><path d="m107.743 310.319v86.143h-16.561v-76.824z" fill="#ea792e"/><path d="m185.805 337.36h-18.809c-4.566-12.238-15.603-20.874-28.502-20.874s-23.936 8.635-28.502 20.874h-18.81v25.094h18.809c4.566 12.238 15.603 20.874 28.502 20.874s23.936-8.635 28.502-20.874h18.809v-25.094z" fill="#fff"/><path d="m91.182 337.36h16.56v25.094h-16.56z" fill="#ebd9ea"/><g><ellipse cx="138.494" cy="349.907" fill="#f39e22" rx="22.293" ry="24.229"/><ellipse cx="138.494" cy="349.907" fill="#f9c744" rx="16.642" ry="18.086"/><g fill="#c44a1a"><path d="m145.183 339.476h-13.59c-1.354 0-2.451 1.097-2.451 2.451 0 1.354 1.097 2.451 2.451 2.451h13.59c1.354 0 2.451-1.097 2.451-2.451 0-1.353-1.097-2.451-2.451-2.451z"/><path d="m151.253 348.316h-25.728c-1.354 0-2.451 1.097-2.451 2.451 0 1.354 1.097 2.451 2.451 2.451h25.728c1.354 0 2.451-1.097 2.451-2.451 0-1.353-1.098-2.451-2.451-2.451z"/></g></g></g></g><g><g><path d="m420.818 283.921v143.984c0 9.691-7.854 17.559-17.545 17.559h-59.519c-9.704 0-17.559-7.868-17.559-17.559v-143.984c0-5.498 1.864-10.663 5.059-14.776s7.721-7.202 13.046-8.56c5.205-1.331 8.932-5.871 9.225-11.235l3.461-63.645h-.493c-3.421 0-5.964-3.195-5.178-6.536l3.581-15.402c.559-2.41 2.702-4.127 5.178-4.127h26.864c2.476 0 4.633 1.717 5.192 4.127l3.581 15.402c.772 3.341-1.757 6.536-5.192 6.536h-.493l3.461 63.645c.147 2.689 1.158 5.165 2.769 7.135 1.624 1.97 3.86 3.435 6.456 4.1 10.664 2.729 18.106 12.327 18.106 23.336z" fill="#6b250c"/><path d="m420.818 283.921v143.984c0 9.691-7.854 17.559-17.545 17.559h-42.972c-9.691 0-17.546-7.868-17.546-17.559v-138.552c0-5.005 2.023-9.531 5.298-12.82 3.288-3.275 7.814-5.298 12.806-5.298 5.192-1.331 8.932-5.871 9.225-11.235l3.448-78.835c0-.013 0-.013 0-.027 0-.107-.093-.2-.213-.2-3.568 0-6.204-3.315-5.391-6.789l3.368-14.51h15.642c2.476 0 4.633 1.717 5.192 4.127l3.581 15.402c.772 3.341-1.757 6.536-5.192 6.536h-.493l3.461 63.645c.147 2.689 1.158 5.165 2.769 7.135 1.624 1.97 3.86 3.435 6.456 4.1 10.664 2.73 18.106 12.328 18.106 23.337z" fill="#7a2b13"/><path d="m397.694 156.338v2.982c0 2.463-1.983 4.446-4.433 4.446h-39.497c-2.449 0-4.446-1.984-4.446-4.446v-2.982c0-2.463 1.997-4.446 4.446-4.446h39.497c2.45-.001 4.433 1.983 4.433 4.446z" fill="#0989d8"/><path d="m397.694 156.338v2.982c0 2.463-1.983 4.446-4.433 4.446h-29.886c-2.449 0-4.433-1.984-4.433-4.446v-2.982c0-2.463 1.983-4.446 4.433-4.446h29.886c2.45-.001 4.433 1.983 4.433 4.446z" fill="#29a3fb"/><g fill="#962a11"><ellipse cx="395.799" cy="272.27" rx="8.822" ry="14.766" transform="matrix(.707 -.707 .707 .707 -76.597 359.619)"/><ellipse cx="410.367" cy="296.808" rx="6.27" ry="10.156" transform="matrix(.979 -.204 .204 .979 -51.936 89.994)"/><path d="m378.302 416.955h-35.547v10.951h35.547c3.024 0 5.475-2.451 5.475-5.475.001-3.025-2.451-5.476-5.475-5.476z"/><path d="m406.138 427.906h-9.377c-3.024 0-5.475-2.451-5.475-5.475 0-3.024 2.451-5.476 5.475-5.476h9.377c3.024 0 5.475 2.451 5.475 5.476 0 3.023-2.451 5.475-5.475 5.475z"/><path d="m386.18 194.805c2.435 0 4.445 1.904 4.577 4.335l1.78 32.74c.143 2.625-1.948 4.832-4.577 4.832h-1.78c-2.531 0-4.584-2.052-4.584-4.584v-32.74c.001-2.531 2.053-4.583 4.584-4.583z"/></g></g><g><path d="m420.818 319.638v76.824h-94.623v-76.824l16.56-9.319 30.751-17.305z" fill="#29a3fb"/><path d="m342.755 310.319v86.143h-16.56v-76.824z" fill="#0989d8"/><path d="m420.818 337.36h-18.809c-4.566-12.238-15.603-20.874-28.502-20.874s-23.936 8.635-28.502 20.874h-18.809v25.094h18.809c4.566 12.238 15.603 20.874 28.502 20.874s23.936-8.635 28.502-20.874h18.809z" fill="#fff"/><path d="m326.195 337.36h16.56v25.094h-16.56z" fill="#ebd9ea"/><g><ellipse cx="373.506" cy="349.907" fill="#f39e22" rx="22.293" ry="24.229"/><ellipse cx="373.506" cy="349.907" fill="#f9c744" rx="16.642" ry="18.086"/><g fill="#c44a1a"><path d="m380.196 339.476h-13.59c-1.354 0-2.451 1.097-2.451 2.451 0 1.354 1.097 2.451 2.451 2.451h13.59c1.354 0 2.451-1.097 2.451-2.451 0-1.353-1.098-2.451-2.451-2.451z"/><path d="m386.265 348.316h-25.728c-1.354 0-2.451 1.097-2.451 2.451 0 1.354 1.097 2.451 2.451 2.451h25.728c1.354 0 2.451-1.097 2.451-2.451 0-1.353-1.097-2.451-2.451-2.451z"/></g></g></g></g><g><g><path d="m237.914 137.709-44.491.002-15.73 41.28z" fill="#ebd9ea"/><path d="m208.088 137.709h29.826l-60.221 41.282z" fill="#fff"/></g><g><path d="m271 137.709 44.491.002 15.73 41.28z" fill="#fff"/><path d="m288.982 137.709h-17.982l60.221 41.282z" fill="#ebd9ea"/></g><g><path d="m362.3 23.07v107.9c0 3.71-3.02 6.74-6.75 6.74h-199.1c-3.72 0-6.75-3.03-6.75-6.74v-107.89c66.45-30.25 144.25-31.28 212.6-.01z" fill="#ebd9ea"/><path d="m362.3 23.07v107.9c0 3.71-3.02 6.74-6.75 6.74h-184.91c-3.72 0-6.75-3.03-6.75-6.74v-113.83c63.16-24.3 134.87-23.14 198.41 5.93z" fill="#fff"/></g><g><path d="m307.43 75.511-45.418 45.418c-3.32 3.323-8.705 3.323-12.025 0l-37.691-37.689-7.726-7.729c-6.033-6.033-9.053-13.943-9.053-21.851 0-7.91 3.02-15.821 9.053-21.854 1.476-1.476 3.064-2.773 4.739-3.888 12.004-7.997 28.372-6.702 38.965 3.888l7.726 7.73 7.726-7.729c6.036-6.033 13.943-9.05 21.854-9.05 7.91 0 15.818 3.017 21.851 9.05 12.069 12.069 12.069 31.638-.001 43.704z" fill="#e52e44"/><path d="m307.43 75.511-36.794 36.794c-3.32 3.323-8.705 3.323-12.025 0l-37.691-37.689-7.726-7.729c-6.036-6.033-9.053-13.943-9.053-21.854 0-5.974 1.722-11.947 5.167-17.115 12.004-7.997 28.372-6.702 38.965 3.888l7.727 7.73 7.726-7.729c6.036-6.033 13.943-9.05 21.854-9.05 7.91 0 15.818 3.017 21.851 9.05 12.069 12.069 12.069 31.638-.001 43.704z" fill="#fa4654"/><g fill="#fb626e"><ellipse cx="295.344" cy="37.296" rx="7.841" ry="12.961" transform="matrix(.596 -.803 .803 .596 89.48 252.329)"/><ellipse cx="307.682" cy="56.225" rx="4.953" ry="8.188" transform="matrix(.989 -.147 .147 .989 -4.921 45.797)"/></g></g></g></g></svg>