<svg id="Icons" enable-background="new 0 0 512 512" height="512" viewBox="0 0 512 512" width="512" xmlns="http://www.w3.org/2000/svg"><g><path d="m512 256c0-70.692-28.654-134.692-74.981-181.019s-110.326-74.981-181.019-74.981c-70.692 0-134.692 28.654-181.019 74.981s-74.981 110.326-74.981 181.019c0 4.781.142 9.527.411 14.24.27 4.713.667 9.391 1.177 14.036h254.412 254.411c.511-4.645.908-9.323 1.177-14.036.27-4.713.412-9.459.412-14.24z" fill="#06daf7"/><path d="m1.589 284.276c7.04 64.037 37.686 120.968 83.051 161.89s105.448 65.834 171.36 65.834 125.995-24.913 171.36-65.834 76.012-97.853 83.051-161.89h-254.411z" fill="#f4b500"/><path d="m139.346 142.877c2.184 0 4.237.544 6.037 1.502s3.348 2.33 4.522 3.986c6.33-2.195 11.777-6.297 15.641-11.617 3.864-5.319 6.147-11.857 6.147-18.924 0-8.917-3.628-17.003-9.485-22.86s-13.944-9.484-22.861-9.484-17.004 3.627-22.861 9.484-9.486 13.943-9.486 22.86c0 7.067 2.282 13.604 6.146 18.923s9.311 9.421 15.64 11.617c1.174-1.656 2.722-3.028 4.522-3.986 1.801-.957 3.854-1.501 6.038-1.501z" fill="none"/><path d="m139.346 85.481c-8.917 0-17.004 3.627-22.861 9.484s-9.485 13.942-9.485 22.859v.001.001h32.346 32.346s0 0 0-.001c0 0 0 0 0-.001 0-8.917-3.628-17.003-9.485-22.86s-13.943-9.483-22.861-9.483z" fill="none"/><path d="m422.705 118.019h-168.953-168.953c-4.033 0-7.684 1.635-10.326 4.277-2.643 2.643-4.277 6.294-4.277 10.327v131.601 131.601c0 4.033 1.635 7.684 4.277 10.327 2.643 2.643 6.294 4.277 10.326 4.277h168.953 168.953c4.033 0 7.684-1.635 10.327-4.277 2.643-2.643 4.277-6.294 4.277-10.327v-131.601-131.601c0-4.033-1.635-7.684-4.277-10.327s-6.295-4.277-10.327-4.277z" fill="#fff"/><path d="m149.905 148.365c-1.174-1.656-2.722-3.028-4.522-3.986s-3.853-1.502-6.037-1.502-4.237.544-6.037 1.502-3.348 2.33-4.522 3.986c1.658.575 3.372 1.026 5.135 1.334s3.574.472 5.425.472c1.85 0 3.661-.164 5.424-.472s3.477-.759 5.134-1.334z" fill="#052481"/><path d="m127.041 159.701c.826 2.627 2.452 4.9 4.597 6.515 2.144 1.616 4.807 2.575 7.707 2.575s5.563-.959 7.707-2.575 3.771-3.888 4.597-6.515c-1.954.575-3.961 1.024-6.014 1.329s-4.152.466-6.289.466-4.237-.161-6.29-.466-4.061-.753-6.015-1.329z" fill="#052481"/><path d="m139.346 74.155c-12.039 0-22.957 4.898-30.865 12.805s-12.807 18.825-12.807 30.864v.001.001h5.663 5.663s0 0 0-.001c0 0 0 0 0-.001 0-8.917 3.628-17.003 9.485-22.86s13.944-9.484 22.861-9.484 17.004 3.627 22.861 9.484 9.485 13.942 9.485 22.86v.001.001c0 7.067-2.283 13.604-6.147 18.923s-9.311 9.421-15.641 11.616c-1.657.575-3.372 1.026-5.134 1.334s-3.574.472-5.424.472c-1.851 0-3.662-.164-5.425-.472s-3.478-.759-5.135-1.334c-.749 1.057-1.349 2.227-1.761 3.482s-.637 2.593-.637 3.988c0 .678.067 1.338.182 1.981.115.644.278 1.271.472 1.886 1.954.575 3.961 1.024 6.015 1.329 2.053.305 4.153.466 6.29.466s4.236-.161 6.289-.466 4.06-.753 6.014-1.329c9.051-2.665 16.893-8.182 22.473-15.509s8.896-16.464 8.896-26.367c0 0 0 0 0-.001 0 0 0 0 0-.001 0-12.039-4.898-22.957-12.807-30.864s-18.826-12.805-30.866-12.805z" fill="#5488e2"/><path d="m259.612 148.365c-1.174-1.656-2.722-3.028-4.522-3.986s-3.853-1.502-6.037-1.502-4.237.544-6.037 1.502-3.348 2.33-4.522 3.986c1.658.575 3.372 1.026 5.135 1.334s3.574.472 5.425.472c1.85 0 3.661-.164 5.424-.472s3.477-.759 5.134-1.334z" fill="#052481"/><path d="m236.748 159.701c.826 2.627 2.452 4.9 4.597 6.515 2.144 1.616 4.807 2.575 7.707 2.575s5.563-.959 7.707-2.575 3.771-3.888 4.597-6.515c-1.954.575-3.961 1.024-6.014 1.329s-4.152.466-6.289.466-4.237-.161-6.29-.466-4.061-.753-6.015-1.329z" fill="#052481"/><path d="m249.053 74.155c-12.039 0-22.957 4.898-30.865 12.805s-12.807 18.825-12.807 30.864v.001.001h5.663 5.663s0 0 0-.001c0 0 0 0 0-.001 0-8.917 3.628-17.003 9.485-22.86s13.944-9.484 22.861-9.484 17.004 3.627 22.861 9.484c5.857 5.856 9.485 13.942 9.485 22.86v.001.001c0 7.067-2.283 13.604-6.147 18.923s-9.311 9.421-15.641 11.616c-1.657.575-3.372 1.026-5.134 1.334s-3.574.472-5.424.472c-1.851 0-3.662-.164-5.425-.472s-3.478-.759-5.135-1.334c-.749 1.057-1.349 2.227-1.761 3.482s-.637 2.593-.637 3.988c0 .678.067 1.338.182 1.981.115.644.278 1.271.472 1.886 1.954.575 3.961 1.024 6.015 1.329 2.053.305 4.153.466 6.29.466s4.236-.161 6.289-.466 4.06-.753 6.014-1.329c9.051-2.665 16.893-8.182 22.473-15.509s8.896-16.464 8.896-26.367c0 0 0 0 0-.001 0 0 0 0 0-.001 0-12.039-4.898-22.957-12.807-30.864s-18.826-12.805-30.866-12.805z" fill="#5488e2"/><path d="m369.319 148.365c-1.174-1.656-2.722-3.028-4.522-3.986s-3.853-1.502-6.037-1.502-4.237.544-6.037 1.502-3.348 2.33-4.522 3.986c1.658.575 3.372 1.026 5.135 1.334s3.574.472 5.425.472c1.85 0 3.661-.164 5.424-.472 1.762-.308 3.476-.759 5.134-1.334z" fill="#052481"/><path d="m346.455 159.701c.826 2.627 2.452 4.9 4.597 6.515 2.144 1.616 4.807 2.575 7.707 2.575s5.562-.959 7.707-2.575 3.771-3.888 4.597-6.515c-1.954.575-3.961 1.024-6.014 1.329s-4.152.466-6.289.466-4.237-.161-6.29-.466-4.061-.753-6.015-1.329z" fill="#052481"/><path d="m358.76 74.155c-12.039 0-22.957 4.898-30.865 12.805s-12.807 18.825-12.807 30.864v.001.001h5.663 5.663s0 0 0-.001c0 0 0 0 0-.001 0-8.917 3.628-17.003 9.485-22.86s13.944-9.484 22.861-9.484 17.004 3.627 22.861 9.484c5.857 5.856 9.485 13.942 9.485 22.86v.001.001c0 7.067-2.283 13.604-6.147 18.923s-9.311 9.421-15.641 11.616c-1.657.575-3.372 1.026-5.134 1.334-1.763.308-3.574.472-5.424.472-1.851 0-3.662-.164-5.425-.472s-3.478-.759-5.135-1.334c-.749 1.057-1.349 2.227-1.761 3.482s-.637 2.593-.637 3.988c0 .678.067 1.338.182 1.981.115.644.278 1.271.472 1.886 1.954.575 3.961 1.024 6.015 1.329s4.153.466 6.29.466 4.236-.161 6.289-.466 4.06-.753 6.014-1.329c9.051-2.665 16.893-8.182 22.473-15.509s8.896-16.464 8.896-26.367c0 0 0 0 0-.001 0 0 0 0 0-.001 0-12.039-4.898-22.957-12.807-30.864s-18.827-12.805-30.866-12.805z" fill="#5488e2"/><path d="m182.852 199.174h-37.926-37.926v16.129 16.129 7.139 7.139 7.325 7.325h25.985 25.984v-7.325-7.325h11.942 11.941v-23.268z" fill="#5488e2"/><path d="m293.967 199.174h-37.926-37.926v16.129 16.129 7.139 7.139 7.325 7.325h25.985 25.984v-7.325-7.325h11.942 11.941v-23.268z" fill="#f95d95"/><path d="m405.082 199.174h-37.926-37.925v16.129 16.129 7.139 7.139 7.325 7.325h25.984 25.984v-7.325-7.325h11.942 11.941v-23.268z" fill="#5488e2"/><path d="m182.852 278.146h-37.926-37.926v16.129 16.129 7.139 7.139 7.325 7.325h25.985 25.984v-7.325-7.325h11.942 11.941v-23.268z" fill="#f95d95"/><path d="m293.967 278.146h-37.926-37.926v16.129 16.129 7.139 7.139 7.325 7.325h25.985 25.984v-7.325-7.325h11.942 11.941v-23.268z" fill="#5488e2"/><path d="m405.082 278.146h-37.926-37.925v16.129 16.129 7.139 7.139 7.325 7.325h25.984 25.984v-7.325-7.325h11.942 11.941v-23.268z" fill="#f95d95"/></g></svg>