<?xml version="1.0" encoding="utf-8"?>
<!-- Generator: Adobe Illustrator 25.0.1, SVG Export Plug-In . SVG Version: 6.00 Build 0)  -->
<svg version="1.1" xmlns="http://www.w3.org/2000/svg" xmlns:xlink="http://www.w3.org/1999/xlink" x="0px" y="0px"
	 viewBox="0 0 642 631.6" style="enable-background:new 0 0 642 631.6;" xml:space="preserve">
<style type="text/css">
	.st0{fill:#49BDD7;}
	.st1{fill:#FFFFFF;}
</style>
<g id="Layer_2">
</g>
<g id="Layer_1">
	<path class="st0" d="M628.7,318.4c0,75.2-27.5,144-73,196.9c-55.4,64.3-137.3,105-228.8,105c-90.5,0-171.6-39.8-227-102.8
		c-46.6-53.1-74.9-122.8-74.9-199c0-166.7,135.2-301.9,301.9-301.9S628.7,151.6,628.7,318.4z"/>
	<ellipse class="st1" cx="326.8" cy="272.3" rx="118.6" ry="132.1"/>
	<path class="st1" d="M555.6,515.3c-55.4,64.3-137.3,105-228.8,105c-90.5,0-171.6-39.8-227-102.8c11-37.5,32.6-90.3,69.5-104.3
		c58.9-22.4,58.9-22.4,58.9-22.4s48.2,39.7,99.8,39.8c51.6-0.1,99.8-39.8,99.8-39.8s0,0,58.9,22.4
		C523,426.8,544.5,477.9,555.6,515.3z"/>
</g>
</svg>
