<?xml version="1.0" encoding="utf-8"?>
<!-- Generator: Adobe Illustrator 25.0.0, SVG Export Plug-In . SVG Version: 6.00 Build 0)  -->
<svg version="1.1" id="Capa_1" xmlns="http://www.w3.org/2000/svg" xmlns:xlink="http://www.w3.org/1999/xlink" x="0px" y="0px"
	 viewBox="0 0 512 512" style="enable-background:new 0 0 512 512;" xml:space="preserve">
<style type="text/css">
	.st0{fill:#FFFFFF;}
</style>
<path class="st0" d="M412.1,148.4c-5.4-31.6-21.2-60.4-45.4-82.2c-26.9-24.3-61.8-37.7-98.2-37.7c-28.1,0-55.5,8-79,23
	c-19.5,12.5-35.8,29.3-47.3,49.1c-5-0.9-10.1-1.4-15.3-1.4c-44,0-79.7,35.3-79.7,78.8c0,5.6,0.6,11,1.7,16.3
	c-28.4,20.4-45.7,53.3-45.7,88.4c0,28.3,10.7,55.8,30.1,77.5c20,22.3,46.3,35.5,74.5,37c0.3,0,0.5,0,0.8,0h88.9
	c7.8,0,14-6.1,14-13.8c0-7.7-6.2-13.8-14-13.8h-88.5C66.6,367,31,327.3,31,282.5c0-28.9,15.7-55.9,41.1-70.5
	c5.9-3.4,8.4-10.4,6.1-16.8c-2.1-5.5-3.1-11.3-3.1-17.6c0-28.2,23.3-51.2,51.8-51.2c6.1,0,12.1,1,17.7,3.1c6.8,2.5,14.4-0.6,17.5-7
	c19.3-40.6,61.1-66.7,106.5-66.7c61,0,111.4,45.2,117.2,105c0.6,6.2,5.4,11.2,11.6,12.3c46,7.8,80.8,49.8,80.8,97.7
	c0,50.8-40.4,94.9-90.3,98.7h-76.2c-7.8,0-14,6.1-14,13.8s6.2,13.8,14,13.8h76.7c0.3,0,0.6,0,1,0c31.5-2.2,61-16.6,82.9-40.5
	c21.8-23.7,33.7-54.1,33.7-85.8C505.9,213.5,466.3,162.5,412.1,148.4z"/>
<path class="st0" d="M338.4,295.7c5.5-5.4,5.5-14.1,0-19.5l-73.9-73c-2.6-2.6-6.2-4.1-9.8-4.1c-3.6,0-7.2,1.4-9.8,4.1l-73.9,73
	c-5.5,5.4-5.5,14.1,0,19.5c2.7,2.7,6.3,4.1,9.8,4.1c3.5,0,7.1-1.3,9.8-4.1l50.2-49.5v227.7c0,7.7,6.2,13.8,14,13.8
	c7.8,0,14-6.1,14-13.8V246.2l50.2,49.5C324.1,301.1,332.9,301.1,338.4,295.7z"/>
</svg>
