<svg width="224" height="224" viewBox="0 0 224 224" fill="none" xmlns="http://www.w3.org/2000/svg">
<path d="M224 112C224 81.0723 211.464 53.0723 191.196 32.8042C170.928 12.5361 142.928 0 112 0C81.0723 0 53.0723 12.5361 32.8042 32.8042C12.5361 53.0723 0 81.0718 0 112C0 114.092 0.062125 116.168 0.179813 118.23C0.297938 120.292 0.471625 122.339 0.69475 124.371H112H223.305C223.528 122.339 223.702 120.292 223.82 118.23C223.938 116.168 224 114.092 224 112Z" fill="#06DAF7"/>
<path d="M0.69519 124.371C3.77519 152.387 17.1828 177.294 37.03 195.198C56.8772 213.101 83.1635 224 112 224C140.837 224 167.123 213.101 186.97 195.198C206.817 177.295 220.225 152.387 223.305 124.371H112H0.69519Z" fill="#F4B500"/>
<path d="M184.933 51.6333H111.016H37.0995C35.3351 51.6333 33.7378 52.3486 32.5819 53.5045C31.4256 54.6608 30.7107 56.2581 30.7107 58.0226V115.598V173.173C30.7107 174.938 31.426 176.535 32.5819 177.691C33.7382 178.848 35.3355 179.563 37.0995 179.563H111.016H184.933C186.698 179.563 188.295 178.847 189.451 177.691C190.608 176.535 191.323 174.938 191.323 173.173V115.598V58.0226C191.323 56.2581 190.607 54.6608 189.451 53.5045C188.296 52.3482 186.697 51.6333 184.933 51.6333Z" fill="white"/>
<path d="M65.5835 64.9098C65.0699 64.1853 64.3926 63.585 63.6051 63.1659C62.8176 62.7468 61.9194 62.5088 60.9639 62.5088C60.0084 62.5088 59.1102 62.7468 58.3227 63.1659C57.5352 63.585 56.858 64.1853 56.3444 64.9098C57.0697 65.1614 57.8196 65.3587 58.5909 65.4934C59.3622 65.6282 60.1545 65.6999 60.9644 65.6999C61.7737 65.6999 62.566 65.6282 63.3374 65.4934C64.1087 65.3587 64.8585 65.1614 65.5835 64.9098Z" fill="#052481"/>
<path d="M55.5804 69.8691C55.9418 71.0185 56.6532 72.0129 57.5916 72.7195C58.5296 73.4265 59.6947 73.846 60.9634 73.846C62.2322 73.846 63.3973 73.4265 64.3353 72.7195C65.2733 72.0125 65.9851 71.0185 66.3464 69.8691C65.4916 70.1207 64.6135 70.3171 63.7153 70.4506C62.8171 70.584 61.8988 70.6545 60.9639 70.6545C60.0289 70.6545 59.1102 70.584 58.212 70.4506C57.3138 70.3171 56.4353 70.1211 55.5804 69.8691Z" fill="#052481"/>
<path d="M60.9639 32.4429C55.6969 32.4429 50.9202 34.5857 47.4605 38.0451C44.0007 41.5044 41.8574 46.281 41.8574 51.5481V51.5485V51.5489H44.335H46.8125C46.8125 51.5489 46.8125 51.5489 46.8125 51.5485C46.8125 51.5485 46.8125 51.5485 46.8125 51.5481C46.8125 47.6469 48.3998 44.1092 50.9622 41.5468C53.5247 38.9844 57.0627 37.3976 60.9639 37.3976C64.8651 37.3976 68.4032 38.9844 70.9656 41.5468C73.528 44.1092 75.1153 47.6464 75.1153 51.5481V51.5485V51.5489C75.1153 54.6407 74.1165 57.5007 72.426 59.8277C70.7355 62.1548 68.3524 63.9494 65.583 64.9097C64.8581 65.1613 64.1078 65.3586 63.3369 65.4934C62.566 65.6281 61.7733 65.6999 60.9639 65.6999C60.1541 65.6999 59.3618 65.6281 58.5905 65.4934C57.8192 65.3586 57.0689 65.1613 56.3439 64.9097C56.0162 65.3722 55.7537 65.8841 55.5735 66.4331C55.3932 66.9822 55.2948 67.5676 55.2948 68.1779C55.2948 68.4745 55.3241 68.7632 55.3744 69.0446C55.4247 69.3263 55.496 69.6006 55.5809 69.8697C56.4358 70.1212 57.3139 70.3177 58.2125 70.4511C59.1107 70.5846 60.0294 70.655 60.9644 70.655C61.8993 70.655 62.8176 70.5846 63.7158 70.4511C64.614 70.3177 65.492 70.1217 66.3469 69.8697C70.3067 68.7037 73.7376 66.2901 76.1789 63.0845C78.6201 59.8789 80.0709 55.8815 80.0709 51.5489C80.0709 51.5489 80.0709 51.5489 80.0709 51.5485C80.0709 51.5485 80.0709 51.5485 80.0709 51.5481C80.0709 46.281 77.928 41.5044 74.4678 38.0451C71.0076 34.5857 66.2314 32.4429 60.9639 32.4429Z" fill="#5488E2"/>
<path d="M113.58 64.9098C113.067 64.1853 112.389 63.585 111.602 63.1659C110.814 62.7468 109.916 62.5088 108.961 62.5088C108.005 62.5088 107.107 62.7468 106.319 63.1659C105.532 63.585 104.855 64.1853 104.341 64.9098C105.066 65.1614 105.816 65.3587 106.588 65.4934C107.359 65.6282 108.151 65.6999 108.961 65.6999C109.77 65.6999 110.563 65.6282 111.334 65.4934C112.105 65.3587 112.855 65.1614 113.58 64.9098Z" fill="#052481"/>
<path d="M103.577 69.8691C103.939 71.0185 104.65 72.0129 105.588 72.7195C106.526 73.4265 107.692 73.846 108.96 73.846C110.229 73.846 111.394 73.4265 112.332 72.7195C113.27 72.0125 113.982 71.0185 114.343 69.8691C113.488 70.1207 112.61 70.3171 111.712 70.4506C110.814 70.584 109.896 70.6545 108.961 70.6545C108.026 70.6545 107.107 70.584 106.209 70.4506C105.311 70.3171 104.432 70.1211 103.577 69.8691Z" fill="#052481"/>
<path d="M108.961 32.4429C103.694 32.4429 98.9171 34.5857 95.4573 38.0451C91.9976 41.5044 89.8542 46.281 89.8542 51.5481V51.5485V51.5489H92.3318H94.8094C94.8094 51.5489 94.8094 51.5489 94.8094 51.5485C94.8094 51.5485 94.8094 51.5485 94.8094 51.5481C94.8094 47.6469 96.3966 44.1092 98.9591 41.5468C101.521 38.9844 105.06 37.3976 108.961 37.3976C112.862 37.3976 116.4 38.9844 118.962 41.5468C121.525 44.1088 123.112 47.6464 123.112 51.5481V51.5485V51.5489C123.112 54.6407 122.113 57.5007 120.423 59.8277C118.732 62.1548 116.349 63.9494 113.58 64.9097C112.855 65.1613 112.105 65.3586 111.334 65.4934C110.563 65.6281 109.77 65.6999 108.961 65.6999C108.151 65.6999 107.359 65.6281 106.587 65.4934C105.816 65.3586 105.066 65.1613 104.341 64.9097C104.013 65.3722 103.751 65.8841 103.57 66.4331C103.39 66.9822 103.292 67.5676 103.292 68.1779C103.292 68.4745 103.321 68.7632 103.371 69.0446C103.422 69.3263 103.493 69.6006 103.578 69.8697C104.433 70.1212 105.311 70.3177 106.209 70.4511C107.107 70.5846 108.026 70.655 108.961 70.655C109.896 70.655 110.814 70.5846 111.713 70.4511C112.611 70.3177 113.489 70.1217 114.344 69.8697C118.304 68.7037 121.734 66.2901 124.176 63.0845C126.617 59.8789 128.068 55.8815 128.068 51.5489C128.068 51.5489 128.068 51.5489 128.068 51.5485C128.068 51.5485 128.068 51.5485 128.068 51.5481C128.068 46.281 125.925 41.5044 122.465 38.0451C119.004 34.5857 114.228 32.4429 108.961 32.4429Z" fill="#5488E2"/>
<path d="M161.577 64.9098C161.063 64.1853 160.386 63.585 159.599 63.1659C158.811 62.7468 157.913 62.5088 156.957 62.5088C156.002 62.5088 155.104 62.7468 154.316 63.1659C153.529 63.585 152.852 64.1853 152.338 64.9098C153.063 65.1614 153.813 65.3587 154.584 65.4934C155.356 65.6282 156.148 65.6999 156.958 65.6999C157.767 65.6999 158.56 65.6282 159.331 65.4934C160.102 65.3587 160.852 65.1614 161.577 64.9098Z" fill="#052481"/>
<path d="M151.574 69.8691C151.935 71.0185 152.647 72.0129 153.585 72.7195C154.523 73.4265 155.688 73.846 156.957 73.846C158.226 73.846 159.39 73.4265 160.329 72.7195C161.267 72.0125 161.979 71.0185 162.34 69.8691C161.485 70.1207 160.607 70.3171 159.709 70.4506C158.811 70.584 157.892 70.6545 156.958 70.6545C156.023 70.6545 155.104 70.584 154.206 70.4506C153.307 70.3171 152.429 70.1211 151.574 69.8691Z" fill="#052481"/>
<path d="M156.958 32.4429C151.691 32.4429 146.914 34.5857 143.454 38.0451C139.994 41.5044 137.851 46.281 137.851 51.5481V51.5485V51.5489H140.329H142.806C142.806 51.5489 142.806 51.5489 142.806 51.5485C142.806 51.5485 142.806 51.5485 142.806 51.5481C142.806 47.6469 144.393 44.1092 146.956 41.5468C149.518 38.9844 153.056 37.3976 156.958 37.3976C160.859 37.3976 164.397 38.9844 166.959 41.5468C169.522 44.1088 171.109 47.6464 171.109 51.5481V51.5485V51.5489C171.109 54.6407 170.11 57.5007 168.42 59.8277C166.729 62.1548 164.346 63.9494 161.577 64.9097C160.852 65.1613 160.101 65.3586 159.331 65.4934C158.559 65.6281 157.767 65.6999 156.958 65.6999C156.148 65.6999 155.355 65.6281 154.584 65.4934C153.813 65.3586 153.063 65.1613 152.338 64.9097C152.01 65.3722 151.747 65.8841 151.567 66.4331C151.387 66.9822 151.288 67.5676 151.288 68.1779C151.288 68.4745 151.318 68.7632 151.368 69.0446C151.418 69.3263 151.49 69.6006 151.575 69.8697C152.429 70.1212 153.308 70.3177 154.206 70.4511C155.105 70.5846 156.023 70.655 156.958 70.655C157.893 70.655 158.811 70.5846 159.709 70.4511C160.608 70.3177 161.486 70.1217 162.341 69.8697C166.3 68.7037 169.731 66.2901 172.172 63.0845C174.614 59.8789 176.064 55.8815 176.064 51.5489C176.064 51.5489 176.064 51.5489 176.064 51.5485C176.064 51.5485 176.064 51.5485 176.064 51.5481C176.064 46.281 173.922 41.5044 170.461 38.0451C167.001 34.5857 162.225 32.4429 156.958 32.4429Z" fill="#5488E2"/>
<path d="M79.9977 87.1387H63.4051H46.8125V94.1951V101.252V104.375V107.498V110.703V113.908H58.1809H69.5489V110.703V107.498H74.7736H79.9977V97.3184V87.1387Z" fill="#5488E2"/>
<path d="M128.611 87.1387H112.018H95.4253V94.1951V101.252V104.375V107.498V110.703V113.908H106.794H118.162V110.703V107.498H123.386H128.611V97.3184V87.1387Z" fill="#F95D95"/>
<path d="M177.223 87.1387H160.631H144.039V94.1951V101.252V104.375V107.498V110.703V113.908H155.407H166.775V110.703V107.498H171.999H177.223V97.3184V87.1387Z" fill="#5488E2"/>
<path d="M79.9977 121.689H63.4051H46.8125V128.745V135.802V138.925V142.048V145.253V148.458H58.1809H69.5489V145.253V142.048H74.7736H79.9977V131.869V121.689Z" fill="#F95D95"/>
<path d="M128.611 121.689H112.018H95.4253V128.745V135.802V138.925V142.048V145.253V148.458H106.794H118.162V145.253V142.048H123.386H128.611V131.869V121.689Z" fill="#5488E2"/>
<path d="M177.223 121.689H160.631H144.039V128.745V135.802V138.925V142.048V145.253V148.458H155.407H166.775V145.253V142.048H171.999H177.223V131.869V121.689Z" fill="#F95D95"/>
</svg>
