<svg width="126" height="126" viewBox="0 0 126 126" fill="none" xmlns="http://www.w3.org/2000/svg">
<mask id="mask0" mask-type="alpha" maskUnits="userSpaceOnUse" x="0" y="0" width="126" height="126">
<rect width="126" height="126" rx="30" fill="white"/>
</mask>
<g mask="url(#mask0)">
<path d="M68.768 11.64C77.984 11.64 85.328 14.28 90.8 19.56C96.272 24.744 99.008 31.896 99.008 41.016C99.008 50.136 95.552 57.96 88.64 64.488C81.728 70.92 73.28 74.136 63.296 74.136H55.088L56.816 111H37.52L39.248 76.008L37.52 11.64H68.768ZM63.584 26.184H56.528L55.52 60.168H65.312C70.112 60.168 73.808 58.584 76.4 55.416C79.088 52.248 80.432 47.736 80.432 41.88C80.432 31.416 74.816 26.184 63.584 26.184Z" fill="white"/>
</g>
</svg>
