<svg width="126" height="182" viewBox="0 0 126 182" fill="none" xmlns="http://www.w3.org/2000/svg">
<rect y="27" width="126" height="126" rx="30" fill="#5DCCE4"/>
<path d="M68.768 38.64C77.984 38.64 85.328 41.28 90.8 46.56C96.272 51.744 99.008 58.896 99.008 68.016C99.008 77.136 95.552 84.96 88.64 91.488C81.728 97.92 73.28 101.136 63.296 101.136H55.088L56.816 138H37.52L39.248 103.008L37.52 38.64H68.768ZM63.584 53.184H56.528L55.52 87.168H65.312C70.112 87.168 73.808 85.584 76.4 82.416C79.088 79.248 80.432 74.736 80.432 68.88C80.432 58.416 74.816 53.184 63.584 53.184Z" fill="#F9FEFF"/>
</svg>
