<?xml version="1.0" encoding="utf-8"?>
<!-- Generator: Adobe Illustrator 25.0.0, SVG Export Plug-In . SVG Version: 6.00 Build 0)  -->
<svg version="1.1" id="Layer_1" xmlns="http://www.w3.org/2000/svg" xmlns:xlink="http://www.w3.org/1999/xlink" x="0px" y="0px"
	 viewBox="0 0 24.9 18.8" style="enable-background:new 0 0 24.9 18.8;" xml:space="preserve">
<style type="text/css">
	.st0{fill:#FFFFFF;}
</style>
<path class="st0" d="M22.7,4.6H2.2C1.5,4.6,1,4.1,1,3.4v0c0-0.7,0.6-1.2,1.2-1.2h20.5c0.7,0,1.2,0.6,1.2,1.2v0
	C24,4.1,23.4,4.6,22.7,4.6z"/>
<path class="st0" d="M22.7,10.6H2.2C1.5,10.6,1,10.1,1,9.4v0c0-0.7,0.6-1.2,1.2-1.2h20.5c0.7,0,1.2,0.6,1.2,1.2v0
	C24,10.1,23.4,10.6,22.7,10.6z"/>
<path class="st0" d="M22.7,16.6H2.2c-0.7,0-1.2-0.6-1.2-1.2v0c0-0.7,0.6-1.2,1.2-1.2h20.5c0.7,0,1.2,0.6,1.2,1.2v0
	C24,16.1,23.4,16.6,22.7,16.6z"/>
</svg>
