<svg width="36" height="39" viewBox="0 0 36 39" fill="none" xmlns="http://www.w3.org/2000/svg">
<path d="M34.7727 17.4662C34.0976 17.4662 33.5453 16.9178 33.5453 16.2475C33.5453 11.5781 31.7196 7.19825 28.3904 3.89239C27.9148 3.42013 27.9148 2.64318 28.3904 2.17091C28.866 1.69865 29.6484 1.69865 30.124 2.17091C33.9059 5.9338 35.9924 10.9307 35.9924 16.2475C36 16.9254 35.4554 17.4662 34.7727 17.4662Z" fill="white"/>
<path d="M1.22736 17.4662C0.552312 17.4662 0 16.9178 0 16.2475C0 10.9307 2.08651 5.9338 5.86831 2.17091C6.34392 1.69865 7.12636 1.69865 7.60196 2.17091C8.07756 2.64318 8.07756 3.42013 7.60196 3.89239C4.28809 7.19825 2.45472 11.5858 2.45472 16.2475C2.45472 16.9254 1.90241 17.4662 1.22736 17.4662Z" fill="white"/>
<path d="M18.004 39C14.6211 39 11.8672 36.2654 11.8672 32.9062C11.8672 32.2359 12.4195 31.6875 13.0945 31.6875C13.7696 31.6875 14.3219 32.2359 14.3219 32.9062C14.3219 34.9248 15.9712 36.5625 18.004 36.5625C20.0368 36.5625 21.6861 34.9248 21.6861 32.9062C21.6861 32.2359 22.2384 31.6875 22.9134 31.6875C23.5885 31.6875 24.1408 32.2359 24.1408 32.9062C24.1408 36.2654 21.3869 39 18.004 39Z" fill="white"/>
<path d="M31.5048 34.125H4.50288C2.92266 34.125 1.6416 32.8529 1.6416 31.2838C1.6416 30.4535 2.00981 29.6613 2.6465 29.1205C5.13191 27.0334 6.55104 23.9941 6.55104 20.7797V16.2475C6.54337 9.97852 11.6829 4.875 18.0038 4.875C24.3171 4.875 29.4566 9.97852 29.4566 16.2475V20.7797C29.4566 23.9941 30.8758 27.0334 33.3458 29.1053C33.9979 29.6613 34.3661 30.4459 34.3661 31.2762C34.3661 32.8529 33.085 34.125 31.5048 34.125ZM18.0038 7.3125C13.0407 7.3125 9.00576 11.3191 9.00576 16.2475V20.7797C9.00576 24.7102 7.27212 28.4273 4.24207 30.9715C4.18837 31.0172 4.09632 31.1238 4.09632 31.2838C4.09632 31.5047 4.28043 31.6875 4.50288 31.6875H31.5048C31.7273 31.6875 31.9114 31.5047 31.9114 31.2838C31.9114 31.1238 31.8193 31.0172 31.7656 30.9715C28.7356 28.4273 27.0019 24.7102 27.0019 20.7797V16.2475C27.0019 11.3191 22.967 7.3125 18.0038 7.3125Z" fill="white"/>
<path d="M18.0037 7.3125C17.3287 7.3125 16.7764 6.76406 16.7764 6.09375V1.21875C16.7764 0.548437 17.3287 0 18.0037 0C18.6788 0 19.2311 0.548437 19.2311 1.21875V6.09375C19.2311 6.76406 18.6788 7.3125 18.0037 7.3125Z" fill="white"/>
<circle cx="28.5" cy="7.5" r="7.5" fill="#C55041"/>
</svg>
