<?xml version="1.0" encoding="utf-8"?>
<!-- Generator: Adobe Illustrator 25.0.0, SVG Export Plug-In . SVG Version: 6.00 Build 0)  -->
<svg version="1.1" id="Capa_1" xmlns="http://www.w3.org/2000/svg" xmlns:xlink="http://www.w3.org/1999/xlink" x="0px" y="0px"
	 viewBox="0 0 512 512" style="enable-background:new 0 0 512 512;" xml:space="preserve">
<style type="text/css">
	.st0{fill:#FFFFFF;}
</style>
<path class="st0" d="M256.3,73.8c8.4,0,15.2-6.6,15.2-14.8c0-8.2-6.8-14.8-15.2-14.8c-8.4,0-15.2,6.6-15.2,14.8
	C241,67.2,247.8,73.8,256.3,73.8z"/>
<path class="st0" d="M459,118.2c0-21.8-18.1-39.4-40.6-39.4h-56.3c-7.5-8.1-17.1-14.3-28.3-17.4c-9.4-2.6-16.5-9.6-19.3-18.7
	C307.3,18.1,283.8,0,256,0c-27.8,0-51.3,18.1-58.5,42.7c-2.7,9.1-9.9,16-19.3,18.7c-11,3.1-20.7,9.2-28.3,17.4H93.6
	C71.1,78.8,53,96.4,53,118.2v354.5c0,21.8,18.1,39.4,40.6,39.4c93.3,0,207.9,0,324.9,0c22.5,0,40.6-17.6,40.6-39.4
	C459,360.7,459,253.7,459,118.2z M154.5,117.8c0.1-17.4,12.2-32.7,29.3-37.5c16.1-4.6,28.6-16.5,33.1-32.1
	C222,31.4,238,19.7,256,19.7s34,11.7,39.1,28.4c4.7,15.6,17,27.7,33.1,32.1c17.3,4.9,29.3,20.4,29.3,37.9v19.7h-203V117.8z
	 M418.4,492.3c-108.5,0-216.7,0-324.9,0c-11.2,0-20.3-8.9-20.3-19.7V118.2c0-10.8,9.1-19.7,20.3-19.7h44c-2.2,6-3.4,12.4-3.4,19.2
	v39.9h243.6v-39.4c0-6.9-1.3-13.5-3.6-19.7h44.2c11.2,0,20.3,8.9,20.3,19.7c0,56.2,0,320.4,0,354.5
	C438.7,483.4,429.6,492.3,418.4,492.3z"/>
<path class="st0" d="M340.4,239.4L218.3,357.8l-53.7-52.2l-14.5,13.9l68.1,66.1l136.4-132.3L340.4,239.4z"/>
</svg>
