<svg width="224" height="224" viewBox="0 0 224 224" fill="none" xmlns="http://www.w3.org/2000/svg">
<path d="M224 112C224 137.288 215.644 160.606 201.512 179.331C200.463 180.731 199.413 182.088 198.275 183.4C185.281 199.062 168.087 211.137 148.444 217.919C145.162 219.056 141.837 220.019 138.381 220.85C129.894 222.906 121.056 224 111.956 224C50.1375 224 0 173.863 0 112C0 74.6375 18.2875 41.5625 46.375 21.2188C64.8375 7.875 87.5 0 112 0C160.825 0 202.344 31.2375 217.656 74.8125C221.769 86.45 224 98.9625 224 112Z" fill="#78C795"/>
<path d="M217.656 74.8125C205.887 110.644 172.156 136.544 132.388 136.544C82.8188 136.544 42.6562 96.3812 42.6562 46.8125C42.6562 37.9312 43.9688 29.3562 46.375 21.2187C64.8375 7.875 87.5 0 112 0C160.825 0 202.344 31.2375 217.656 74.8125Z" fill="#9ACDAE"/>
<path d="M123.594 213.194C105.963 212.8 101.413 191.275 96.9938 172.506L113.138 168.788C114.931 176.531 116.856 184.538 119.219 190.225C121.581 195.869 123.331 196.569 123.331 196.569C123.419 196.569 129.5 197.094 146.256 174.256L159.644 184.056C144.9 204.181 133.875 213.194 123.594 213.194Z" fill="#2D2667"/>
<path d="M114.319 170.669C114.319 174.388 111.3 177.406 107.582 177.406H89.338C85.5755 177.406 82.6005 174.344 82.6005 170.669C82.6005 166.95 85.6192 163.931 89.338 163.931H107.582C111.213 163.931 114.319 166.906 114.319 170.669Z" fill="#EAB39B"/>
<path d="M111.3 167.651C111.3 171.369 108.281 174.388 104.563 174.388H86.3188C85.2251 174.388 84.2188 174.126 83.3 173.688C81.025 169.313 84.3938 163.888 89.2938 163.976H107.538C108.631 163.976 109.638 164.238 110.556 164.676C111.038 165.551 111.3 166.557 111.3 167.651Z" fill="#FFE9D7"/>
<path d="M198.275 183.4C199.369 182.088 200.463 180.731 201.513 179.331C188.781 155.313 154.263 155.663 142.013 179.856C139.738 184.363 138.425 189.525 138.425 194.906V220.806C161.875 215.25 183.181 201.731 198.275 183.4Z" fill="#2D2667"/>
<path d="M148.444 217.919C148.531 214.812 148.225 193.331 148.706 190.837C149.231 186.506 150.631 182.262 152.775 178.5C157.325 170.406 165.331 164.413 174.388 162.356C175.219 162.181 176.05 162.006 176.925 161.875C177.931 162.05 178.938 162.225 179.944 162.487C189.306 164.806 197.138 171.062 201.513 179.375C188.169 197.05 169.794 210.569 148.444 217.919Z" fill="#6C53A2"/>
<path d="M148.444 217.919C148.531 214.813 148.225 193.331 148.706 190.838C149.188 186.813 150.413 182.875 152.338 179.288C156.581 171.238 164.238 165.069 172.988 162.706C173.425 162.575 173.906 162.488 174.388 162.356C185.281 164.85 194.469 172.9 198.275 183.444C185.281 199.106 168.088 211.181 148.444 217.919Z" fill="#57409B"/>
<path d="M154.088 135.231C154.438 139.694 151.025 143.675 146.475 143.675H140.044C129.85 143.413 129.85 127.881 140.044 127.619H146.475C150.675 127.619 154.088 131.031 154.088 135.231Z" fill="#F9D6BF"/>
<path d="M211.356 135.231C211.706 139.694 208.294 143.675 203.744 143.675H197.313C187.119 143.413 187.119 127.881 197.313 127.619H203.744C207.944 127.619 211.356 131.031 211.356 135.231Z" fill="#F9D6BF"/>
<path d="M156.8 135.625C156.8 137.375 155.356 138.819 153.606 138.819H141.619C139.869 138.819 138.425 137.375 138.425 135.625C138.425 133.875 139.869 132.431 141.619 132.431H153.606C155.4 132.431 156.8 133.875 156.8 135.625Z" fill="#EAB39B"/>
<path d="M205.363 135.625C205.363 137.375 203.919 138.819 202.169 138.819H190.181C188.431 138.819 186.988 137.375 186.988 135.625C186.988 133.875 188.431 132.431 190.181 132.431H202.125C203.919 132.431 205.363 133.875 205.363 135.625Z" fill="#EAB39B"/>
<path d="M179.9 156.188V164.194C179.9 167.913 177.319 171.063 173.863 171.981C168.875 173.338 163.756 169.4 163.844 164.194V156.188C163.756 151.025 168.919 147.088 173.863 148.4C177.406 149.319 179.9 152.469 179.9 156.188Z" fill="#EAB39B"/>
<path d="M179.9 156.188V164.194C179.9 167.913 177.319 171.063 173.863 171.981C170.406 171.106 167.825 167.956 167.825 164.194V156.188C167.825 152.469 170.406 149.319 173.863 148.4C177.406 149.319 179.9 152.469 179.9 156.188Z" fill="#F9D6BF"/>
<path d="M179.9 156.188V163.538C178.019 163.975 176.05 164.194 174.037 164.194C170.887 164.194 166.862 164.325 163.844 163.538V156.188C163.756 151.025 168.919 147.088 173.862 148.4C177.406 149.319 179.9 152.469 179.9 156.188Z" fill="#EAB39B"/>
<path d="M200.506 115.631V133.744C200.55 148.356 188.475 160.256 174.081 160.169H169.706C155.094 160.169 143.281 148.356 143.281 133.744V115.631C143.281 101.019 155.094 89.2064 169.706 89.2064H174.081C188.475 89.1627 200.55 101.019 200.506 115.631Z" fill="#F9D6BF"/>
<path d="M200.506 115.631V133.744C200.506 147.657 189.788 159.031 176.138 160.081C162.531 159.031 151.769 147.613 151.769 133.744V115.631C151.769 101.719 162.488 90.344 176.138 89.2502C189.788 90.344 200.506 101.763 200.506 115.631Z" fill="#FFE9D7"/>
<path d="M171.894 147.35C168.612 147.35 165.637 146.344 164.15 144.725C163.406 143.85 164.631 142.713 165.419 143.544C167.781 146.256 175.919 146.256 178.281 143.544C179.069 142.713 180.337 143.85 179.55 144.725C178.106 146.344 175.175 147.35 171.894 147.35Z" fill="#EAB39B"/>
<path d="M176.269 138.294H167.475C166.337 138.294 166.337 136.544 167.475 136.544H176.269C177.406 136.544 177.45 138.25 176.269 138.294Z" fill="#F3C3AA"/>
<path d="M164.806 128.494C164.806 126.306 163.056 124.556 160.869 124.556C155.663 124.775 155.663 132.213 160.869 132.431C163.056 132.431 164.806 130.681 164.806 128.494Z" fill="#EAB39B"/>
<path d="M186.813 128.494C186.813 126.306 185.063 124.556 182.875 124.556C177.669 124.775 177.669 132.213 182.875 132.431C185.063 132.431 186.813 130.681 186.813 128.494Z" fill="#EAB39B"/>
<path d="M164.544 129.981C164.544 127.969 162.925 126.306 160.869 126.306C156.013 126.481 156.013 133.438 160.869 133.613C162.881 133.613 164.544 131.994 164.544 129.981Z" fill="#122894"/>
<path d="M163.406 130.025C165.113 128.232 162.531 125.694 160.781 127.4C159.075 129.194 161.656 131.732 163.406 130.025Z" fill="#E8F3FC"/>
<path d="M186.55 129.981C186.55 127.969 184.931 126.306 182.875 126.306C178.019 126.481 178.019 133.438 182.875 133.613C184.888 133.613 186.55 131.994 186.55 129.981Z" fill="#122894"/>
<path d="M185.456 130.025C187.162 128.232 184.581 125.694 182.831 127.4C181.125 129.194 183.662 131.732 185.456 130.025Z" fill="#E8F3FC"/>
<path d="M205.012 115.194V127.706C204.137 127.531 201.425 127.619 200.506 127.575V115.631C199.325 115.588 176.488 114.363 152.994 107.8C150.413 107.1 147.875 106.313 145.294 105.438C143.981 108.588 143.238 112 143.238 115.631V127.575C142.144 127.619 139.519 127.488 138.469 127.75V115.194C138.425 100.625 148.706 88.2876 162.444 85.2251C165.987 84.3063 170.581 84.4813 174.256 84.4813C177.319 84.4813 180.381 84.9626 183.312 85.8376C196 89.6876 205.1 101.763 205.012 115.194Z" fill="#6F341B"/>
<path d="M205.019 114.987V127.5C204.144 127.325 201.431 127.412 200.512 127.369V115.425C199.331 115.337 176.494 114.156 153 107.594C156.325 96.8312 166.387 89 178.244 89H182.619C186.862 89 190.887 90.0063 194.431 91.7563C201.081 97.6187 204.975 105.844 205.019 114.987Z" fill="#93552B"/>
<path d="M74.7687 155.575C74.7687 150.281 70.4812 148.794 65.2312 148.794C59.9812 148.794 55.6937 150.325 55.6937 155.575C56.175 168.219 74.2437 168.219 74.7687 155.575Z" fill="#E9465E"/>
<path d="M74.7687 152.206C74.7687 146.913 70.4812 145.425 65.2312 145.425C59.9812 145.425 55.6937 146.956 55.6937 152.206C56.175 164.85 74.2437 164.85 74.7687 152.206Z" fill="#C0405C"/>
<path d="M117.906 85.8813V148.225C117.906 150.544 116.812 152.6 115.15 153.956C113.881 154.962 112.306 155.575 110.6 155.575H19.8187C15.8375 155.575 12.5125 152.337 12.5125 148.269V85.8813C12.5125 83.3438 13.7812 81.1125 15.75 79.8C16.9312 79.0125 18.3312 78.5312 19.8625 78.5312H110.644C114.625 78.575 117.906 81.8563 117.906 85.8813Z" fill="#E9465E"/>
<path d="M18.9437 85.8813V148.225C18.9437 150.763 17.675 152.95 15.75 154.306C13.825 152.994 12.5125 150.763 12.5125 148.225V85.8813C12.5125 83.3438 13.7812 81.1125 15.75 79.8C17.675 81.1563 18.9437 83.3876 18.9437 85.8813Z" fill="#C0405C"/>
<path d="M117.906 85.8812V148.225C117.906 150.544 116.812 152.6 115.15 153.956C113.487 152.6 112.394 150.544 112.394 148.225V85.8812C112.394 83.5624 113.487 81.5062 115.15 80.1499C116.856 81.5062 117.906 83.6062 117.906 85.8812Z" fill="#EE6781"/>
<path d="M101.894 150.806H28.525C25.1125 150.806 22.3562 148.05 22.3562 144.638V89.5125C22.3562 86.1 25.1125 83.3438 28.525 83.3438H101.894C105.306 83.3438 108.062 86.1 108.062 89.5125V144.594C108.062 148.05 105.306 150.806 101.894 150.806Z" fill="#C0405C"/>
<path d="M108.062 84.7437V139.825C108.062 141.181 107.625 142.45 106.837 143.5C105.7 145.031 103.906 145.994 101.894 145.994H28.525C25.1125 145.994 22.3562 143.194 22.3562 139.825V84.7437C22.3562 81.3312 25.1125 78.575 28.525 78.575H101.894C105.306 78.575 108.062 81.3312 108.062 84.7437Z" fill="#EBD9EA"/>
<path d="M108.062 84.7437V139.825C108.062 143.237 105.306 145.994 101.894 145.994H65.2312V78.575H101.894C105.306 78.575 108.062 81.3312 108.062 84.7437Z" fill="white"/>
<path d="M106.837 143.5C105.7 145.031 103.906 145.994 101.894 145.994H28.5249C26.4687 145.994 24.6749 144.988 23.5812 143.5C24.7187 141.969 26.5124 141.006 28.5249 141.006H101.894C103.906 141.006 105.744 142.013 106.837 143.5Z" fill="#C1B7D3"/>
<path d="M65.2312 96.1188H37.1437C35.7437 96.1188 34.6499 94.9813 34.6499 93.6251C34.6499 92.2251 35.7874 91.1313 37.1437 91.1313H65.2312V96.1188Z" fill="#6C53A2"/>
<path d="M65.2312 111.388H37.1437C35.7437 111.388 34.6499 110.25 34.6499 108.894C34.6499 107.494 35.7874 106.4 37.1437 106.4H65.2312V111.388Z" fill="#6C53A2"/>
<path d="M65.2312 126.656H37.1437C35.7437 126.656 34.6499 125.519 34.6499 124.163C34.6499 122.806 35.7874 121.669 37.1437 121.669H65.2312V126.656Z" fill="#6C53A2"/>
<path d="M65.2312 121.625H93.3187C94.7187 121.625 95.8125 122.763 95.8125 124.119C95.8125 125.475 94.675 126.612 93.3187 126.612H65.2312V121.625Z" fill="#9175A7"/>
<path d="M65.2312 106.4H93.3187C94.7187 106.4 95.8125 107.537 95.8125 108.894C95.8125 110.294 94.675 111.387 93.3187 111.387H65.2312V106.4Z" fill="#9175A7"/>
<path d="M65.2312 91.1313H93.3187C94.7187 91.1313 95.8125 92.2688 95.8125 93.6251C95.8125 95.0251 94.675 96.1188 93.3187 96.1188H65.2312V91.1313Z" fill="#9175A7"/>
<path d="M150.456 31.4125C150.5 36.7937 147.262 40.6437 144.944 45.0187C143.85 47.1187 140.919 55.9125 140.875 56.2625H123.9C123.9 56.2625 120.881 46.55 119.131 43.6625C116.812 39.9 114.319 36.1375 114.319 31.4125C114.319 21.525 122.369 13.3437 132.387 13.3437C142.187 13.2562 150.544 21.4375 150.456 31.4125Z" fill="#DAAB42"/>
<path d="M121.362 31.4126C121.362 35.3063 120.137 38.9376 118.037 41.8688C116.112 38.7188 114.319 35.3938 114.319 31.4126C114.319 27.3876 115.631 23.6688 117.862 20.6938C120.05 23.7126 121.362 27.3876 121.362 31.4126Z" fill="#C4983D"/>
<path d="M150.456 31.4125C150.5 36.7938 147.262 40.6438 144.944 45.0188C144.375 46.2438 143.762 47.8188 143.15 49.4375C121.1 50.6188 116.069 20.125 137.025 13.9563C144.856 16.0563 150.456 23.1 150.456 31.4125Z" fill="#F9C744"/>
<path d="M150.456 31.4125C150.5 36.7938 147.263 40.6438 144.944 45.0188C136.894 38.1063 136.763 25.2 144.638 18.1125C148.225 21.4375 150.456 26.1625 150.456 31.4125Z" fill="#F8D07A"/>
<path d="M147.613 27.5188C147.613 23.4063 144.288 20.125 140.219 20.125C130.375 20.5187 130.375 34.5625 140.219 34.9562C144.288 34.9125 147.613 31.5875 147.613 27.5188Z" fill="#FBD9A3"/>
<path d="M138.819 71.3125V73.8937C138.819 76.5625 137.2 78.8375 134.881 79.8C130.812 81.5937 125.912 78.3562 126.044 73.8937V71.3125H138.819Z" fill="#2E3140"/>
<path d="M138.819 71.3125V73.8937C138.819 76.5625 137.2 78.8375 134.881 79.8C132.562 78.8375 130.944 76.5625 130.944 73.8937V71.3125H138.819Z" fill="#3E4E60"/>
<path d="M129.588 43.75H135.275V56.2625H129.588V43.75Z" fill="#BF5E39"/>
<path d="M132.388 43.75H135.231V56.2625H132.388V43.75Z" fill="#DD5E26"/>
<path d="M140.788 40.2063C140.788 42.1313 139.213 43.7501 137.244 43.7501H127.575C122.894 43.5751 122.894 36.8376 127.575 36.6626H137.244C139.213 36.6626 140.788 38.2376 140.788 40.2063Z" fill="#BF5E39"/>
<path d="M140.788 40.2063C140.788 40.5563 140.744 40.9063 140.656 41.2126H131.469C129.15 41.2563 127.4 38.8938 128.056 36.6626H137.244C139.213 36.6626 140.788 38.2376 140.788 40.2063Z" fill="#DD5E26"/>
<path d="M139.738 37.7126C140.613 38.5438 141.006 39.9876 140.613 41.2126H137.331C135.013 41.2563 133.263 38.8938 133.963 36.6626H137.244C138.206 36.6626 139.125 37.0563 139.738 37.7126Z" fill="#EA792E"/>
<path d="M145.863 60.9874C145.863 63.5687 143.15 64.0499 141.138 65.7124C140.744 66.0624 140.788 67.7249 140.788 67.7249C140.788 72.3624 137.025 76.1249 132.388 76.1249C127.75 76.1687 123.988 72.2749 124.032 67.7249C124.032 67.7249 124.075 66.0187 123.682 65.7124C121.713 64.0062 118.957 63.6124 118.957 60.9874C118.957 58.3624 121.057 56.2625 123.682 56.2625H141.138C143.719 56.2625 145.863 58.3624 145.863 60.9874Z" fill="#C1B7D3"/>
<path d="M145.819 60.9875C145.862 63.5688 143.106 64.05 141.094 65.7125C140.7 66.0625 140.744 67.7251 140.744 67.7251C140.744 72.3625 136.981 76.125 132.344 76.125C127.706 76.1688 123.944 72.275 123.987 67.7251C123.987 67.7251 124.031 66.0188 123.637 65.7125C121.669 64.0063 118.912 63.6125 118.912 60.9875H145.819Z" fill="#AEA7B9"/>
<path d="M135.231 60.9875C135.231 60.9875 133.831 71.0938 124.819 71.3125C124.294 70.2188 124.031 69.0375 124.031 67.725C124.031 67.725 124.075 66.0188 123.681 65.7125C121.713 64.0063 118.956 63.6125 118.956 60.9875H135.231Z" fill="#9F90AE"/>
<path d="M131.163 58.6249C131.163 59.9374 130.113 60.9874 128.8 60.9874H118.957C118.957 58.3624 121.057 56.2625 123.682 56.2625H128.8C130.113 56.2625 131.163 57.3124 131.163 58.6249Z" fill="#AEA7B9"/>
<path d="M137.55 70.9187C137.55 71.8812 136.762 72.6687 135.8 72.6687H125.65C124.906 71.6624 124.381 70.4812 124.162 69.2124H135.8C136.762 69.2124 137.55 69.9562 137.55 70.9187Z" fill="#C1B7D3"/>
<path d="M134.05 72.6687H132.956C131.994 72.6687 131.206 71.8812 131.206 70.9187C131.206 69.9562 131.994 69.1687 132.956 69.1687H134.05C136.369 69.2562 136.369 72.5812 134.05 72.6687Z" fill="#EBD9EA"/>
<path d="M140.263 59.7187H134.969C132.694 59.6312 132.65 56.3062 134.969 56.2625H140.263C142.538 56.3062 142.538 59.675 140.263 59.7187Z" fill="#EBD9EA"/>
</svg>
