<svg width="23" height="29" viewBox="0 0 23 29" fill="none" xmlns="http://www.w3.org/2000/svg">
<path d="M11.5144 4.18268C11.9907 4.18268 12.3769 3.80815 12.3769 3.34614C12.3769 2.88413 11.9907 2.5096 11.5144 2.5096C11.038 2.5096 10.6519 2.88413 10.6519 3.34614C10.6519 3.80815 11.038 4.18268 11.5144 4.18268Z" fill="black"/>
<path d="M23 6.69231C23 5.45841 21.9722 4.46154 20.7 4.46154H17.5088C17.0847 4.00144 16.5384 3.65288 15.9059 3.47861C15.3741 3.33221 14.9716 2.93486 14.8134 2.41899C14.4038 1.02476 13.0741 0 11.5 0C9.92594 0 8.59625 1.02476 8.18656 2.41899C8.03562 2.93486 7.62594 3.32524 7.09406 3.47861C6.46875 3.65288 5.9225 4.00144 5.49125 4.46154H2.3C1.02781 4.46154 0 5.45841 0 6.69231V26.7692C0 28.0031 1.02781 29 2.3 29C7.58281 29 14.0731 29 20.7 29C21.9722 29 23 28.0031 23 26.7692C23 20.4325 23 14.3675 23 6.69231ZM5.75 6.67139C5.75719 5.68846 6.44 4.81707 7.41031 4.54519C8.32312 4.28726 9.0275 3.61106 9.28625 2.72572C9.57375 1.77764 10.4794 1.11538 11.5 1.11538C12.5206 1.11538 13.4262 1.77764 13.7137 2.72572C13.9797 3.61106 14.6769 4.29423 15.5897 4.54519C16.5672 4.82404 17.25 5.7024 17.25 6.69231V7.80769H5.75V6.67139ZM20.7 27.8846C14.5547 27.8846 8.42375 27.8846 2.3 27.8846C1.6675 27.8846 1.15 27.3827 1.15 26.7692V6.69231C1.15 6.07885 1.6675 5.57692 2.3 5.57692H4.79406C4.67187 5.91851 4.6 6.28101 4.6 6.66442V8.92308H18.4V6.69231C18.4 6.30192 18.3281 5.92548 18.1987 5.57692H20.7C21.3325 5.57692 21.85 6.07885 21.85 6.69231C21.85 9.87812 21.85 24.8382 21.85 26.7692C21.85 27.3827 21.3325 27.8846 20.7 27.8846Z" fill="black"/>
<path d="M16.2794 13.5589L9.36506 20.2651L6.32475 17.3094L5.50537 18.0971L9.36506 21.8406L17.0916 14.3466L16.2794 13.5589Z" fill="black"/>
</svg>
