<svg id="Icons" enable-background="new 0 0 512 512" height="512" viewBox="0 0 512 512" width="512" xmlns="http://www.w3.org/2000/svg"><g><g><circle cx="256" cy="256" fill="#fbdb58" r="256"/><path d="m309.18 445.48c-9.08 13.34-23.65 18.43-37.34 22.68-13.68 4.26-28.26 8.98-37.71 21.91-4.01 5.48-6.69 13.35-6.17 20.41-128.19-13.96-227.96-122.58-227.96-254.48 0-135.84 105.82-246.98 239.52-255.48-5.94 4.48-10.52 10.38-9 18.19 3.1 15.86 26.31 10.65 31.82 25.49 3.49 9.42-3 20.03-10.15 25.47-7.16 5.43-15.79 9-20.47 17.61-8.02 14.77.61 35.46 12.56 45.43 11.94 9.97 26.67 13.86 38.67 23.73 11.99 9.88 20.83 30.35 13.03 45.32-6.18 11.85-19.15 14.03-29.68 19.49-12.43 6.45-22.93 19.51-26.24 35.64s1.56 34.92 12.89 43.95c6.93 5.51 15.41 7.12 22.82 11.59 7.4 4.47 14.16 13.98 12.14 23.83-2.67 12.92-16.99 15.17-24.33 24.97-8.08 10.8-4.24 31.18 6.88 36.47 10.88 5.18 23.9-2.99 34.52 2.97 12.84 7.21 13.27 31.48 4.2 44.81z" fill="#f7c845"/><path d="m463.82 405.51c-46.48 64.5-122.25 106.49-207.82 106.49s-161.34-41.99-207.82-106.49z" fill="#f39e22"/><path d="m303.372 405.513h-205.681v13.912h205.681c3.842 0 6.956-3.114 6.956-6.956 0-3.842-3.115-6.956-6.956-6.956z" fill="#ea792e"/></g><g><g><path d="m254.055 174.789 27.844 103.914-182.734 48.964-27.843-103.914c-1.397-5.215-1.675-10.47-.967-15.498-.002-.007-.002-.007-.002-.007 2.099-15.094 12.982-28.209 28.635-32.403l107.153-28.712c15.653-4.194 31.636 1.722 41 13.745 0 0 0 0 .002.007 3.128 4 5.515 8.689 6.912 13.904z" fill="#be1913"/><path d="m247.141 160.877s0 0 .002.007c-2.099 15.094-12.982 28.209-28.635 32.403l-107.153 28.712c-15.653 4.194-31.636-1.722-41-13.745-.002-.007-.002-.007-.002-.007 2.099-15.094 12.982-28.209 28.635-32.403l107.153-28.712c15.653-4.194 31.636 1.722 41 13.745z" fill="#dd1608"/><path d="m93.747 279.946h189.18v30.094h-189.18z" fill="#aa1813" transform="matrix(.966 -.259 .259 .966 -69.932 58.797)"/><g fill="#ea4744"><path d="m167.906 166.356-69.593 18.647c-3.227.865-5.142 4.182-4.278 7.409.865 3.227 4.182 5.142 7.409 4.278l69.593-18.647c3.227-.865 5.142-4.182 4.278-7.409-.865-3.227-4.182-5.143-7.409-4.278z"/><path d="m211.306 154.727-20.157 5.401c-3.227.865-5.142 4.182-4.278 7.409.865 3.227 4.182 5.142 7.409 4.278l20.157-5.401c3.227-.865 5.142-4.182 4.278-7.409-.865-3.227-4.182-5.143-7.409-4.278z"/></g></g><path d="m133.208 360.361h153.088v29.106h-153.088z" fill="#dd1608" transform="matrix(.966 -.259 .259 .966 -89.888 67.063)"/><g><path d="m289.277 309.926 2.73 10.187c2.443 9.117-2.968 18.489-12.085 20.932l-147.872 39.622c-9.118 2.443-18.489-2.968-20.932-12.085l-2.73-10.187c-.441-1.645-.77-3.288-.989-4.93-2.568-19.085 9.384-37.563 28.475-42.678l105.796-28.348c19.091-5.115 38.681 4.91 45.999 22.723.631 1.531 1.167 3.119 1.608 4.764z" fill="#aa1813"/><path d="m287.668 305.162c.56 7.993-4.594 15.517-12.627 17.67l-147.872 39.622c-8.033 2.152-16.26-1.786-19.771-8.989-2.249-16.712 6.64-32.962 21.706-40.177 2.137-1.023 4.402-1.867 6.769-2.502l105.796-28.348c2.368-.634 4.751-1.036 7.113-1.218 16.655-1.283 32.477 8.345 38.886 23.942z" fill="#dd1608"/><path d="m247.162 288.545-112.993 30.276c-3.227.865-5.142 4.182-4.278 7.409.865 3.227 4.182 5.142 7.409 4.278l112.993-30.276c3.227-.865 5.142-4.182 4.278-7.409-.864-3.227-4.181-5.143-7.409-4.278z" fill="#ea4744"/></g><g><path d="m313.17 259.707 22.057 82.317c1.979 7.386-2.404 14.977-9.79 16.956l-37.983 10.178-25.64-95.69c-.273-1.018-.483-2.037-.627-3.05-1.937-13.159 6.258-25.981 19.425-29.509 13.16-3.526 26.675 3.478 31.577 15.843.38.95.708 1.937.981 2.955z" fill="#be1913"/><path d="m312.188 256.752c1.929 13.161-6.269 25.968-19.429 29.494-13.167 3.528-26.663-3.466-31.573-15.828-1.937-13.159 6.258-25.981 19.425-29.509 13.16-3.526 26.675 3.479 31.577 15.843z" fill="#dd1608"/><path d="m305.012 298.975 16.369 61.091-16.498 4.421-16.369-61.091c-.088-.327-.155-.654-.202-.98-.622-4.227 2.01-8.346 6.24-9.48 4.228-1.133 8.569 1.117 10.144 5.09.123.305.228.622.316.949z" fill="#dd1608"/><ellipse cx="293.536" cy="259.238" fill="#ea4744" rx="7.741" ry="13.922" transform="matrix(.966 -.259 .259 .966 -57.094 84.806)"/></g><g><path d="m113.942 313.09 25.64 95.69-37.983 10.178c-7.386 1.979-14.977-2.404-16.956-9.79l-22.057-82.317c-.273-1.018-.483-2.037-.627-3.05-1.937-13.159 6.258-25.981 19.425-29.509 13.16-3.526 26.675 3.478 31.577 15.843.38.949.708 1.937.981 2.955z" fill="#be1913"/><path d="m112.96 310.135c1.929 13.161-6.269 25.968-19.429 29.494-13.167 3.528-26.663-3.466-31.573-15.828-1.937-13.159 6.258-25.981 19.425-29.509 13.16-3.526 26.675 3.479 31.577 15.843z" fill="#dd1608"/><path d="m105.784 352.358 16.369 61.091-16.498 4.421-16.369-61.091c-.088-.327-.155-.654-.202-.98-.622-4.227 2.01-8.346 6.24-9.48 4.228-1.133 8.569 1.117 10.144 5.09.123.305.228.622.316.949z" fill="#dd1608"/><ellipse cx="94.309" cy="312.621" fill="#ea4744" rx="7.741" ry="13.922" transform="matrix(.966 -.259 .259 .966 -77.699 35.061)"/></g></g><g><g><g><path d="m338.503 380.003 32.492 18.245 5.32 2.983 9.445-16.042-21.074-15.433c-1.894-1.385-1.989-4.197-.177-5.71l18.349-15.335c.577-.489 1.259-.842 1.995-1.032 2.329-.603 4.749.505 5.824 2.619l.006.022c.073.145.135.293.196.442l24.215 61.848 11.437-.147 8.867-.115-23.996-92.698-58.774 15.214-17.929 30.452c-3.003 5.102-1.299 11.683 3.804 14.687z" fill="#8a47de"/><path d="m338.503 380.003 32.492 18.245 1.604-2.724c2.736-4.647 1.511-10.601-2.823-13.804l-16.018-11.795c-1.897-1.396-1.989-4.197-.177-5.71l27.392-22.693c.577-.489 1.478-1.177 2.214-1.368 2.493-.645 2.85.859 4.194 3.191l3.296 6.953.006.022c.073.145.135.293.196.442l24.215 61.848 11.437-.147-23.467-90.654-50.435 13.056-17.929 30.452c-3.004 5.101-1.3 11.682 3.803 14.686z" fill="#a95afe"/></g><g><path d="m393.459 426.661 40.28.193c2.733.008 4.748-2.577 4.063-5.225l-2.403-9.283-20.305.262-20.019 3.178c-.225.035-.437.078-.657.135-2.922.756-5.025 3.364-5.11 6.433-.071 2.352 1.803 4.293 4.151 4.307z" fill="#334353"/><path d="m393.459 426.661 40.28.193c2.733.008 4.748-2.577 4.063-5.225l-48.493.725c-.072 2.352 1.802 4.293 4.15 4.307z" fill="#3e4e60"/></g><g><path d="m375.978 422.887c1.069.825 2.392 1.045 3.59.735 1.066-.276 2.034-.972 2.614-2.036l15.539-28.228c1.339-2.433-.035-5.477-2.748-6.087l-9.213-2.081-9.445 16.042-3.266 13.329c-.767 3.105.383 6.371 2.929 8.326z" fill="#334353"/><path d="m375.978 422.887c1.069.825 2.392 1.045 3.59.735 1.066-.276 2.034-.972 2.614-2.036l15.539-28.228c1.339-2.433-.035-5.477-2.748-6.087z" fill="#3e4e60"/></g></g><g><path d="m320.406 286.709c6.391-4.799 11.316-11.14 14.027-18.194l6.369-16.572c2.074-5.398 8.601-7.145 12.9-3.388.74.647 1.929 1.742 2.995 2.941 5.747 6.462 7.39 15.601 4.258 23.662l-2.279 5.865c-2.221 5.779-6.757 10.812-12.61 13.993l-20.456 11.116z" fill="#528f66"/></g><g><path d="m334.404 264.448 18.228 70.418 58.774-15.214-18.228-70.418c-2.364-9.132-11.679-14.617-20.803-12.255l-25.728 6.66c-9.123 2.361-14.607 11.677-12.243 20.809z" fill="#53b976"/></g><g><path d="m350.967 159.534-23.17 5.998c-13.488 3.492-21.592 17.257-18.101 30.745l3.901 15.068 72.016-18.642-3.901-15.068c-3.492-13.489-17.257-21.593-30.745-18.101z" fill="#334353"/><g><g><path d="m348.275 236.507 1.629 6.292c1.374 5.309 6.792 8.499 12.101 7.124 5.309-1.374 8.499-6.792 7.124-12.101l-1.629-6.292z" fill="#fdc8bb"/><path d="m348.275 236.507 1.407 5.434c1.62.886 3.376 1.449 5.179 1.669 1.795.222 3.631.111 5.419-.352 3.567-.923 6.655-3.172 8.628-6.294l-1.407-5.434z" fill="#f78c87"/></g><g><path d="m316.325 194.621 5.411 20.902c1.505 5.815 5.477 10.679 10.873 13.317l15.666 7.668c1.392.759 2.873 1.274 4.41 1.546.257.044.512.079.767.115 1.795.222 3.631.111 5.419-.352 3.567-.923 6.655-3.172 8.63-6.286l9.978-14.306c3.438-4.925 4.543-11.102 3.038-16.918l-5.411-20.902c-2.001-7.73-9.884-12.378-17.614-10.377l-30.793 7.971c-7.729 2.001-12.375 9.892-10.374 17.622z" fill="#fbb3a5"/><path d="m316.325 194.621 5.411 20.902c1.505 5.815 5.477 10.679 10.873 13.317l15.666 7.668c1.392.759 2.873 1.274 4.41 1.546 1.212-.983 2.257-2.153 3.106-3.491l9.978-14.306c3.438-4.925 4.543-11.102 3.038-16.918l-5.411-20.902c-2.001-7.73-9.892-12.376-17.614-10.377l-19.083 4.94c-7.729 2-12.375 9.891-10.374 17.621z" fill="#fdc8bb"/></g><path d="m317.964 203.927.725-.188 3.051 11.785-.725.188c-3.254.842-6.575-1.113-7.418-4.367-.843-3.255 1.113-6.576 4.367-7.418z" fill="#fdc8bb"/><path d="m381.245 200.121-.725.188-3.051-11.785.725-.188c3.254-.842 6.575 1.113 7.418 4.367.843 3.254-1.112 6.575-4.367 7.418z" fill="#fbb3a5"/><path d="m348.611 208.568 5.039-1.304c1.293-.335 2.613.442 2.948 1.736.335 1.293-.442 2.613-1.736 2.948l-5.039 1.304c-1.293.335-2.613-.442-2.948-1.736-.335-1.293.442-2.613 1.736-2.948z" fill="#fbb3a5"/><g><ellipse cx="336.778" cy="208.471" fill="#1a2f5d" rx="3.18" ry="4.165" transform="matrix(.968 -.251 .251 .968 -41.496 91.048)"/><ellipse cx="363.972" cy="201.432" fill="#1a2f5d" rx="3.18" ry="4.165" transform="matrix(.968 -.251 .251 .968 -38.865 97.638)"/><g><path d="m330.789 208.763c.221-.057.43-.17.608-.338 2.73-2.601 6.392-3.552 10.042-2.611.741.192 1.498-.255 1.689-.996s-.255-1.498-.997-1.689c-2.281-.589-4.55-.599-6.744-.031-2.203.57-4.189 1.687-5.903 3.32-.554.528-.576 1.406-.048 1.96.36.376.882.507 1.353.385z" fill="#1a2f5d"/></g><g><path d="m357.983 201.723c.221-.057.43-.17.608-.338 2.73-2.601 6.392-3.552 10.042-2.611.741.192 1.498-.255 1.689-.996s-.255-1.498-.997-1.689c-2.281-.589-4.55-.599-6.744-.031-2.203.57-4.189 1.687-5.903 3.32-.554.528-.576 1.406-.048 1.96.36.377.882.507 1.353.385z" fill="#1a2f5d"/></g><g><path d="m326.491 201.031c.164.013.332-.002.499-.051 2.389-.696 4.888-.946 7.429-.742 2.533.204 4.953.846 7.193 1.908.69.328 1.518.034 1.847-.658.328-.692.033-1.519-.658-1.847-2.545-1.207-5.29-1.936-8.159-2.167-2.878-.231-5.713.052-8.427.844-.735.214-1.157.984-.943 1.719.164.568.662.949 1.219.994z" fill="#1a2f5d"/></g><g><path d="m356.24 198.557c.138-.09.262-.205.364-.346 1.466-2.011 3.291-3.736 5.428-5.127 2.13-1.387 4.438-2.357 6.86-2.884.746-.161 1.223-.901 1.06-1.65-.163-.748-.902-1.222-1.65-1.06-2.752.599-5.37 1.699-7.783 3.27-2.42 1.576-4.491 3.533-6.156 5.817-.451.619-.315 1.486.304 1.937.478.35 1.105.347 1.573.043z" fill="#1a2f5d"/></g><g><path d="m347.541 225.237c.159-.041.313-.111.455-.212 2.029-1.44 4.309-2.494 6.777-3.133 2.46-.637 4.957-.822 7.421-.551.758.085 1.446-.465 1.53-1.227.083-.761-.466-1.446-1.227-1.53-2.799-.308-5.632-.098-8.419.623-2.796.724-5.382 1.92-7.687 3.556-.624.443-.771 1.309-.328 1.933.343.484.938.681 1.478.541z" fill="#f78c87"/></g></g></g><path d="m347.837 164.41-4.344 3.951c-1.32 1.201-3.148 1.673-4.884 1.263l-5.699-1.347c-2.303-.544-4.729 0-6.58 1.476l-5.827 4.648c-4.772 3.806-6.958 9.999-5.634 15.957l3.737 16.82c.385 1.734 2.64 2.198 3.678.757l18.942-26.284c1.323-1.836 3.767-2.469 5.815-1.505l29.322 13.791c1.608.756 3.354-.743 2.849-2.447l-4.894-16.523c-1.733-5.852-6.648-10.205-12.666-11.219l-7.346-1.238c-2.334-.392-4.718.308-6.469 1.9z" fill="#3e4e60"/></g><g><path d="m383.233 253.052c7.392 4.489 11.647 12.742 11.021 21.368l-.455 6.275c-.425 6.176-3.283 12.32-7.943 17.08l-28.528 29.135-13.622-13.338 10.868-11.099c7.262-7.416 11.714-16.989 12.377-26.612l1.22-17.712c.397-5.769 6.122-9.356 11.336-7.028.896.4 2.354 1.099 3.726 1.931z" fill="#528f66"/><path d="m320.779 336.985 4.511 4.417c2.169 2.123 5.659 2.093 7.783-.075l19.078-19.484-8.447-8.271-4.902 5.007c-1.707-1.671-3.928-2.496-6.14-2.473s-4.416.894-6.087 2.601l-5.924 6.051c-3.343 3.413-3.286 8.884.128 12.227z" fill="#fdc8bb"/></g></g><g><g><path d="m338.19 32.64v89.67c0 2.64-2.14 4.79-4.79 4.79h-141.44c-2.64 0-4.79-2.15-4.79-4.79v-89.67c0-2.64 2.15-4.79 4.79-4.79h141.44c2.65 0 4.79 2.15 4.79 4.79z" fill="#f4e6f4"/><path d="m309.478 127.098-32.384.002 38.767 31.659z" fill="#f4e6f4"/><g fill="#fff"><path d="m338.19 32.64v89.67c0 2.64-2.14 4.79-4.79 4.79h-131.36c-2.64 0-4.79-2.15-4.79-4.79v-89.67c0-2.64 2.15-4.79 4.79-4.79h131.36c2.65 0 4.79 2.15 4.79 4.79z"/><path d="m287.769 127.098h21.709l6.383 31.661z"/></g></g><g><g><g><path d="m281.063 77.37h-36.765c-3.135 0-5.678-2.542-5.678-5.678v-18.781c0-9.099 7.403-16.502 16.502-16.502h15.117c9.099 0 16.502 7.403 16.502 16.502v18.782c-.001 3.134-2.543 5.677-5.678 5.677zm-31.088-11.356h25.41v-13.103c0-2.838-2.309-5.147-5.146-5.147h-15.117c-2.838 0-5.147 2.309-5.147 5.147z" fill="#334353"/></g><path d="m268.671 52.911h-11.983c-3.708 0-6.714-3.006-6.714-6.714v-7.731c0-3.708 3.006-6.714 6.714-6.714h11.983c3.708 0 6.714 3.006 6.714 6.714v7.731c0 3.708-3.006 6.714-6.714 6.714z" fill="#2e3140"/><ellipse cx="281.981" cy="52.825" fill="#3e4e60" rx="2.851" ry="6.778"/><ellipse cx="245.442" cy="52.825" fill="#3e4e60" rx="2.851" ry="6.778"/><path d="m270.258 34.929h-15.157c-1.363 0-2.469 1.105-2.469 2.469 0 1.363 1.105 2.469 2.469 2.469h15.157c1.363 0 2.469-1.105 2.469-2.469 0-1.364-1.105-2.469-2.469-2.469z" fill="#334353"/></g><g><g><path d="m292.785 89.699c0 15.774 0 28.707-25.679 29.998-1.398.071-2.868.107-4.427.107-30.105 0-30.105-13.476-30.105-30.105 0-16.62 13.476-30.096 30.105-30.096 1.505 0 2.984.107 4.427.321 14.528 2.137 25.679 14.66 25.679 29.775z" fill="#334353"/><path d="m292.785 89.699c0 15.774 0 28.707-25.679 29.998-25.688-1.291-25.688-14.224-25.688-29.998 0-15.124 11.151-27.638 25.688-29.776 14.528 2.138 25.679 14.661 25.679 29.776z" fill="#3e4e60"/><g fill="#3f5d77"><ellipse cx="283.832" cy="84.83" rx="5.332" ry="8.969"/><ellipse cx="283.832" cy="101.766" rx="2.769" ry="5.92"/></g></g><g fill="#fff"><path d="m261.547 87.858c0 .817-.462 1.225-1.387 1.225h-8.783c-1.388.048-1.668-1.669-.763-2.496 1.122-1.329 6.048-6.143 6.691-7.616 1.523-3.078-.879-4.853-3.791-3.652-.906.247-1.74 1.204-2.715 1.352-1.076-.072-1.301-1.768-.439-2.335 4.538-3.666 12.695-1.439 9.731 5.328-.752 1.789-4.652 5.427-6.033 7.015h6.102c.925 0 1.387.393 1.387 1.179z"/><path d="m273.023 79.318c4.705 3.005 2.331 10.241-3.386 9.95-1.761-.01-5.414-.844-5.686-2.843-.001-1.133 1.039-1.579 1.895-.878 2.16 1.835 6.896 2.152 6.819-1.595 0-.909-.274-1.629-.82-2.161-1.377-1.283-3.902-.941-5.305.312-.72.566-2.016.316-2.011-.717v-7.212c-.005-.869.534-1.395 1.41-1.386h7.697c1.867-.145 1.867 2.456 0 2.311h-6.194v4.392c1.436-1.069 4.03-1.088 5.581-.173z"/><path d="m262.217 108.321c.023 1.131-1.398 1.853-2.219.948 0 0-5.408-4.9-5.408-4.9v3.952c.088 1.317-1.64 1.74-2.485 1.017-.27-.231-.404-.57-.404-1.017v-13.799c0-.447.134-.786.404-1.017.845-.72 2.573-.301 2.485 1.017v8.691l4.946-4.738c1.231-1.284 3.143.654 1.826 1.872 0 0-3.629 3.375-3.629 3.375l4.022 3.606c.308.292.462.623.462.993z"/><path d="m274.537 98.405c.262.247.393.578.393.994v9.13c.301 5.596-6.177 6.435-10.054 4.438-1.108-.494-1.188-2.218.023-2.335.83.097 1.866.724 2.623.878 2.192.605 4.702-.101 4.542-2.773v-1.479c-1.121 2.187-4.383 2.505-6.321 1.283-1.661-1.031-2.449-2.89-2.439-4.912-.007-2.02.75-3.907 2.427-4.934 1.949-1.218 5.206-.91 6.333 1.283v-.601c-.082-1.276 1.661-1.741 2.473-.972zm-3.247 7.697c1.038-1.097 1.027-3.879 0-4.97-.943-1.2-3.357-1.205-4.311 0-1.043 1.09-1.053 3.872 0 4.97.954 1.205 3.368 1.2 4.311 0z"/></g></g></g></g><g><g><path d="m51.441 227.177c2.122-.045 3.806-1.803 3.761-3.925-1.047-48.941 37.917-89.61 86.858-90.657 2.122-.045 3.806-1.803 3.761-3.925s-1.803-3.806-3.925-3.761c-53.179 1.138-95.517 45.328-94.379 98.507.044 2.123 1.802 3.807 3.924 3.761z" fill="#faefdc"/></g><g><path d="m41.436 281.227c.574-.012 1.154-.154 1.697-.438 1.881-.984 2.608-3.307 1.623-5.188-28.391-54.254-7.351-121.49 46.903-149.882 1.881-.984 2.608-3.307 1.623-5.188-.984-1.881-3.306-2.608-5.188-1.623-58.01 30.357-80.506 102.248-50.15 160.258.701 1.338 2.078 2.092 3.492 2.061z" fill="#faefdc"/></g></g><g fill="#faefdc"><path d="m394.914 226.987c-1.143-1.646-.825-3.894.729-5.159l33.108-25.841c1.731-1.409 4.294-1.047 5.567.786 1.143 1.646.825 3.894-.729 5.159l-33.108 25.841c-1.73 1.409-4.294 1.047-5.567-.786z"/><path d="m423.365 245.453c-.358-1.971.862-3.886 2.8-4.393l40.838-9.804c2.159-.565 4.342.826 4.741 3.022.358 1.971-.862 3.886-2.8 4.393l-40.838 9.804c-2.159.565-4.342-.826-4.741-3.022z"/></g></g></svg>