<?xml version="1.0" encoding="utf-8"?>
<!-- Generator: Adobe Illustrator 25.0.0, SVG Export Plug-In . SVG Version: 6.00 Build 0)  -->
<svg version="1.1" id="Capa_1" xmlns="http://www.w3.org/2000/svg" xmlns:xlink="http://www.w3.org/1999/xlink" x="0px" y="0px"
	 viewBox="0 0 512 512" style="enable-background:new 0 0 512 512;" xml:space="preserve">
<style type="text/css">
	.st0{clip-path:url(#SVGID_2_);}
	.st1{fill:#FFFFFF;}
</style>
<g>
	<defs>
		<rect id="SVGID_1_" y="21.3" width="512" height="467.5"/>
	</defs>
	<clipPath id="SVGID_2_">
		<use xlink:href="#SVGID_1_"  style="overflow:visible;"/>
	</clipPath>
	<g class="st0">
		<path class="st1" d="M458.9,61.1h-32.1V35c0-7.5-6-13.7-13.3-13.7c-7.3,0-13.3,6.1-13.3,13.7v26.1H269.4V35
			c0-7.5-6-13.7-13.3-13.7c-7.3,0-13.3,6.1-13.3,13.7v26.1h-132V35c0-7.5-6-13.7-13.3-13.7C90,21.3,84,27.5,84,35v26.1H53.2
			C23.9,61.1,0,86.4,0,116.4v317.7c0,30.2,23.7,54.7,53.2,54.7h405.6c29.5,0,53.2-24.5,53.2-54.5V116.4
			C512.1,86.4,488.3,61.1,458.9,61.1z M485.5,434.1c0,15-11.7,27.2-26.4,27.3h-0.1H53.2c-14.7,0-26.5-12.2-26.5-27.2v-0.1V116.4
			c0-15.2,11.9-28,26.5-28H84v19.8c0,7.5,6,13.7,13.3,13.7c7.3,0,13.3-6.1,13.3-13.7V88.4h132v19.8c0,7.5,6,13.7,13.3,13.7
			c7.3,0,13.3-6.1,13.3-13.7V88.4h130.7v19.8c0,7.5,6,13.7,13.3,13.7c7.3,0,13.3-6.1,13.3-13.7V88.4h32.1c14.8,0,26.5,13,26.5,28
			V434.1z"/>
		<path class="st1" d="M221,177.2h-23.3c-7.3,0-13.3,6.1-13.3,13.7c0,7.5,6,13.7,13.3,13.7H221c7.3,0,13.3-6.1,13.3-13.7
			C234.3,183.4,228.3,177.2,221,177.2z"/>
		<path class="st1" d="M313.8,177.2h-23.3c-7.3,0-13.3,6.1-13.3,13.7c0,7.5,6,13.7,13.3,13.7h23.3c7.3,0,13.3-6.1,13.3-13.7
			C327.2,183.4,321.3,177.2,313.8,177.2z"/>
		<path class="st1" d="M407.4,177.2h-23.3c-7.3,0-13.3,6.1-13.3,13.7c0,7.5,6,13.7,13.3,13.7h23.3c7.3,0,13.3-6.1,13.3-13.7
			C420.8,183.4,414.8,177.2,407.4,177.2z"/>
		<path class="st1" d="M221,271.5h-23.3c-7.3,0-13.3,6.1-13.3,13.7c0,7.5,6,13.7,13.3,13.7H221c7.3,0,13.3-6.1,13.3-13.7
			C234.3,277.7,228.3,271.5,221,271.5z"/>
		<path class="st1" d="M127.5,271.5H104c-7.3,0-13.3,6.1-13.3,13.7c0,7.5,6,13.7,13.3,13.7h23.3c7.3,0,13.3-6.1,13.3-13.7
			C140.7,277.7,134.8,271.5,127.5,271.5z"/>
		<path class="st1" d="M313.8,271.5h-23.3c-7.3,0-13.3,6.1-13.3,13.7c0,7.5,6,13.7,13.3,13.7h23.3c7.3,0,13.3-6.1,13.3-13.7
			C327.2,277.7,321.3,271.5,313.8,271.5z"/>
		<path class="st1" d="M407.4,271.5h-23.3c-7.3,0-13.3,6.1-13.3,13.7c0,7.5,6,13.7,13.3,13.7h23.3c7.3,0,13.3-6.1,13.3-13.7
			C420.8,277.7,414.8,271.5,407.4,271.5z"/>
		<path class="st1" d="M221,364.4h-23.3c-7.3,0-13.3,6.1-13.3,13.7c0,7.5,6,13.7,13.3,13.7H221c7.3,0,13.3-6.1,13.3-13.7
			C234.3,370.6,228.3,364.4,221,364.4z"/>
		<path class="st1" d="M127.5,364.4H104c-7.3,0-13.3,6.1-13.3,13.7c0,7.5,6,13.7,13.3,13.7h23.3c7.3,0,13.3-6.1,13.3-13.7
			C140.7,370.6,134.8,364.4,127.5,364.4z"/>
		<path class="st1" d="M313.8,364.4h-23.3c-7.3,0-13.3,6.1-13.3,13.7c0,7.5,6,13.7,13.3,13.7h23.3c7.3,0,13.3-6.1,13.3-13.7
			C327.2,370.6,321.3,364.4,313.8,364.4z"/>
	</g>
</g>
</svg>
