<svg width="23" height="21" viewBox="0 0 23 21" fill="none" xmlns="http://www.w3.org/2000/svg">
<g clip-path="url(#clip0)">
<path d="M20.6155 1.78632H19.1717V0.613856C19.1717 0.276235 18.9021 0 18.5725 0C18.243 0 17.9734 0.276235 17.9734 0.613856V1.78632H12.1021V0.613856C12.1021 0.276235 11.8325 0 11.503 0C11.1735 0 10.9039 0.276235 10.9039 0.613856V1.78632H4.97265V0.613856C4.97265 0.276235 4.70305 0 4.37354 0C4.04402 0 3.77442 0.276235 3.77442 0.613856V1.78632H2.39047C1.07241 1.78632 0 2.92195 0 4.27243V18.5446C0 19.9012 1.06642 21 2.39047 21H20.6095C21.9336 21 23 19.9012 23 18.5507V4.27243C23.006 2.92195 21.9336 1.78632 20.6155 1.78632ZM21.8078 18.5446C21.8078 19.2198 21.2805 19.7661 20.6215 19.7723H20.6155H2.39047C1.73144 19.7723 1.19823 19.226 1.19823 18.5507V18.5446V4.27243C1.19823 3.59105 1.73144 3.01403 2.39047 3.01403H3.77442V3.90412C3.77442 4.24174 4.04402 4.51798 4.37354 4.51798C4.70305 4.51798 4.97265 4.24174 4.97265 3.90412V3.01403H10.9039V3.90412C10.9039 4.24174 11.1735 4.51798 11.503 4.51798C11.8325 4.51798 12.1021 4.24174 12.1021 3.90412V3.01403H17.9734V3.90412C17.9734 4.24174 18.243 4.51798 18.5725 4.51798C18.9021 4.51798 19.1717 4.24174 19.1717 3.90412V3.01403H20.6155C21.2805 3.01403 21.8078 3.59719 21.8078 4.27243V18.5446Z" fill="black"/>
<path d="M9.92735 7.00409H8.8789C8.54939 7.00409 8.27979 7.28032 8.27979 7.61794C8.27979 7.95557 8.54939 8.2318 8.8789 8.2318H9.92735C10.2569 8.2318 10.5265 7.95557 10.5265 7.61794C10.5265 7.28032 10.2569 7.00409 9.92735 7.00409Z" fill="black"/>
<path d="M14.0973 7.00409H13.0488C12.7193 7.00409 12.4497 7.28032 12.4497 7.61794C12.4497 7.95557 12.7193 8.2318 13.0488 8.2318H14.0973C14.4268 8.2318 14.6964 7.95557 14.6964 7.61794C14.6964 7.28032 14.4328 7.00409 14.0973 7.00409Z" fill="black"/>
<path d="M18.3028 7.00409H17.2544C16.9249 7.00409 16.6553 7.28032 16.6553 7.61794C16.6553 7.95557 16.9249 8.2318 17.2544 8.2318H18.3028C18.6323 8.2318 18.9019 7.95557 18.9019 7.61794C18.9019 7.28032 18.6323 7.00409 18.3028 7.00409Z" fill="black"/>
<path d="M9.92735 11.2397H8.8789C8.54939 11.2397 8.27979 11.5159 8.27979 11.8536C8.27979 12.1912 8.54939 12.4674 8.8789 12.4674H9.92735C10.2569 12.4674 10.5265 12.1912 10.5265 11.8536C10.5265 11.5159 10.2569 11.2397 9.92735 11.2397Z" fill="black"/>
<path d="M5.72777 11.2397H4.67333C4.34382 11.2397 4.07422 11.5159 4.07422 11.8536C4.07422 12.1912 4.34382 12.4674 4.67333 12.4674H5.72178C6.0513 12.4674 6.3209 12.1912 6.3209 11.8536C6.3209 11.5159 6.05729 11.2397 5.72777 11.2397Z" fill="black"/>
<path d="M14.0973 11.2397H13.0488C12.7193 11.2397 12.4497 11.5159 12.4497 11.8536C12.4497 12.1912 12.7193 12.4674 13.0488 12.4674H14.0973C14.4268 12.4674 14.6964 12.1912 14.6964 11.8536C14.6964 11.5159 14.4328 11.2397 14.0973 11.2397Z" fill="black"/>
<path d="M18.3028 11.2397H17.2544C16.9249 11.2397 16.6553 11.5159 16.6553 11.8536C16.6553 12.1912 16.9249 12.4674 17.2544 12.4674H18.3028C18.6323 12.4674 18.9019 12.1912 18.9019 11.8536C18.9019 11.5159 18.6323 11.2397 18.3028 11.2397Z" fill="black"/>
<path d="M9.92735 15.4139H8.8789C8.54939 15.4139 8.27979 15.6901 8.27979 16.0278C8.27979 16.3654 8.54939 16.6416 8.8789 16.6416H9.92735C10.2569 16.6416 10.5265 16.3654 10.5265 16.0278C10.5265 15.6901 10.2569 15.4139 9.92735 15.4139Z" fill="black"/>
<path d="M5.72777 15.4139H4.67333C4.34382 15.4139 4.07422 15.6901 4.07422 16.0278C4.07422 16.3654 4.34382 16.6416 4.67333 16.6416H5.72178C6.0513 16.6416 6.3209 16.3654 6.3209 16.0278C6.3209 15.6901 6.05729 15.4139 5.72777 15.4139Z" fill="black"/>
<path d="M14.0973 15.4139H13.0488C12.7193 15.4139 12.4497 15.6901 12.4497 16.0278C12.4497 16.3654 12.7193 16.6416 13.0488 16.6416H14.0973C14.4268 16.6416 14.6964 16.3654 14.6964 16.0278C14.6964 15.6901 14.4328 15.4139 14.0973 15.4139Z" fill="black"/>
</g>
<defs>
<clipPath id="clip0">
<rect width="23" height="21" fill="white"/>
</clipPath>
</defs>
</svg>
