<svg width="23" height="21" viewBox="0 0 23 21" fill="none" xmlns="http://www.w3.org/2000/svg">
<path d="M18.7055 5.48476C18.4596 4.04116 17.736 2.72369 16.6292 1.72392C15.3995 0.612013 13.8009 0 12.1361 0C10.8497 0 9.59634 0.364405 8.52272 1.05117C7.62883 1.62113 6.88628 2.39199 6.3613 3.29833C6.13428 3.25628 5.8978 3.23293 5.66132 3.23293C3.65124 3.23293 2.01481 4.84939 2.01481 6.83493C2.01481 7.09188 2.04318 7.33949 2.09048 7.58242C0.789842 8.5168 0 10.0211 0 11.6236C0 12.9177 0.487148 14.1744 1.37631 15.1695C2.28912 16.188 3.49517 16.7907 4.78162 16.8607C4.7958 16.8607 4.80526 16.8607 4.81945 16.8607H8.8869C9.24162 16.8607 9.5254 16.5804 9.5254 16.23C9.5254 15.8796 9.24162 15.5993 8.8869 15.5993H4.83837C2.90397 15.4825 1.27699 13.6652 1.27699 11.6189C1.27699 10.2968 1.99589 9.0634 3.15464 8.39533C3.42422 8.24116 3.53773 7.9188 3.43368 7.62914C3.33909 7.37686 3.2918 7.11057 3.2918 6.82558C3.2918 5.53615 4.35595 4.48498 5.66132 4.48498C5.94037 4.48498 6.21468 4.5317 6.47008 4.62514C6.78223 4.73726 7.12749 4.59711 7.26938 4.30278C8.15381 2.44805 10.0646 1.25206 12.1409 1.25206C14.9313 1.25206 17.2346 3.31702 17.4995 6.05473C17.5279 6.33971 17.7454 6.56863 18.0292 6.61535C20.1339 6.97041 21.723 8.89054 21.723 11.0816C21.723 13.4036 19.8737 15.4218 17.5941 15.5947H14.1084C13.7536 15.5947 13.4699 15.875 13.4699 16.2254C13.4699 16.5758 13.7536 16.8561 14.1084 16.8561H17.6177C17.6319 16.8561 17.6461 16.8561 17.665 16.8561C19.1075 16.7533 20.4555 16.0992 21.4582 15.006C22.4561 13.9221 23 12.5299 23 11.0816C22.9953 8.46073 21.1838 6.12948 18.7055 5.48476Z" fill="black"/>
<path d="M15.3333 12.2216C15.584 11.974 15.584 11.5769 15.3333 11.3293L11.9517 7.98888C11.8334 7.87208 11.6679 7.802 11.5024 7.802C11.3368 7.802 11.1713 7.86741 11.0531 7.98888L7.6714 11.3293C7.42073 11.5769 7.42073 11.974 7.6714 12.2216C7.79437 12.343 7.9599 12.4085 8.12071 12.4085C8.28152 12.4085 8.44705 12.3477 8.57002 12.2216L10.8639 9.95573V20.3693C10.8639 20.7197 11.1476 21 11.5024 21C11.8571 21 12.1409 20.7197 12.1409 20.3693V9.95573L14.4347 12.2216C14.6807 12.4692 15.0827 12.4692 15.3333 12.2216Z" fill="black"/>
</svg>
