<svg width="121" height="134" viewBox="0 0 121 134" fill="none" xmlns="http://www.w3.org/2000/svg">
<g opacity="0.5">
<rect opacity="0.7" y="13" width="121" height="121" rx="18" fill="#C4C4C4"/>
<path opacity="0.7" d="M0 31C0 21.0589 8.05888 13 18 13H103C112.941 13 121 21.0589 121 31V49H0V31Z" fill="#B8BDC0"/>
<rect opacity="0.7" x="30" width="17" height="27" rx="7" fill="#E6E8E9"/>
<rect opacity="0.7" x="74" width="17" height="27" rx="7" fill="#E6E8E9"/>
<rect opacity="0.7" x="14" y="55" width="16" height="16" fill="#E6E8E9"/>
<rect opacity="0.7" x="14" y="81" width="16" height="16" fill="#E6E8E9"/>
<rect opacity="0.7" x="14" y="107" width="16" height="16" fill="#E6E8E9"/>
<rect opacity="0.7" x="40" y="55" width="16" height="16" fill="#E6E8E9"/>
<rect opacity="0.5" x="40" y="81" width="16" height="16" fill="#E6E8E9"/>
<rect opacity="0.7" x="40" y="107" width="16" height="16" fill="#E6E8E9"/>
<rect opacity="0.7" x="66" y="55" width="16" height="16" fill="#E6E8E9"/>
<rect opacity="0.7" x="66" y="81" width="16" height="16" fill="#E6E8E9"/>
<rect opacity="0.7" x="66" y="107" width="16" height="16" fill="#E6E8E9"/>
<rect opacity="0.7" x="92" y="55" width="16" height="16" fill="#E6E8E9"/>
<rect opacity="0.7" x="92" y="81" width="16" height="16" fill="#E6E8E9"/>
<rect opacity="0.7" x="92" y="107" width="16" height="16" fill="#E6E8E9"/>
</g>
</svg>
