<?xml version="1.0" encoding="utf-8"?>
<!-- Generator: Adobe Illustrator 25.0.0, SVG Export Plug-In . SVG Version: 6.00 Build 0)  -->
<svg version="1.1" id="Capa_1" xmlns="http://www.w3.org/2000/svg" xmlns:xlink="http://www.w3.org/1999/xlink" x="0px" y="0px"
	 viewBox="0 0 512 512" style="enable-background:new 0 0 512 512;" xml:space="preserve">
<style type="text/css">
	.st0{clip-path:url(#SVGID_2_);}
	.st1{fill:#FFFFFF;}
</style>
<g>
	<defs>
		<rect id="SVGID_1_" width="512" height="512"/>
	</defs>
	<clipPath id="SVGID_2_">
		<use xlink:href="#SVGID_1_"  style="overflow:visible;"/>
	</clipPath>
	<g class="st0">
		<path class="st1" d="M373.3,512c-76.5,0-138.7-62.2-138.7-138.7c0-76.5,62.2-138.7,138.7-138.7c76.5,0,138.7,62.3,138.7,138.7
			C512,449.7,449.8,512,373.3,512z M373.3,266.7c-58.8,0-106.7,47.9-106.7,106.7S314.5,480,373.3,480c58.8,0,106.7-47.9,106.7-106.7
			C480,314.5,432.1,266.7,373.3,266.7z"/>
		<path class="st1" d="M373.3,448c-8.8,0-16-7.2-16-16V314.7c0-8.8,7.2-16,16-16c8.8,0,16,7.2,16,16V432
			C389.3,440.8,382.2,448,373.3,448z"/>
		<path class="st1" d="M432,389.3H314.7c-8.8,0-16-7.2-16-16c0-8.8,7.2-16,16-16H432c8.8,0,16,7.2,16,16
			C448,382.1,440.8,389.3,432,389.3z"/>
		<path class="st1" d="M196.1,448H58.7C26.3,448,0,421.7,0,389.3V58.7C0,26.3,26.3,0,58.7,0H304c32.4,0,58.7,26.3,58.7,58.7v129.9
			c0,8.8-7.2,16-16,16c-8.8,0-16-7.2-16-16V58.7c0-14.7-12-26.7-26.7-26.7H58.7C44,32,32,44,32,58.7v330.7C32,404,44,416,58.7,416
			h137.4c8.8,0,16,7.2,16,16C212.1,440.8,204.9,448,196.1,448z"/>
		<path class="st1" d="M282.7,202.7H80c-8.8,0-16-7.2-16-16s7.2-16,16-16h202.7c8.8,0,16,7.2,16,16S291.5,202.7,282.7,202.7z"/>
		<path class="st1" d="M197.3,288H80c-8.8,0-16-7.2-16-16c0-8.8,7.2-16,16-16h117.3c8.8,0,16,7.2,16,16
			C213.3,280.8,206.2,288,197.3,288z"/>
		<path class="st1" d="M176,117.3H80c-8.8,0-16-7.2-16-16s7.2-16,16-16h96c8.8,0,16,7.2,16,16S184.8,117.3,176,117.3z"/>
	</g>
</g>
</svg>
