<svg width="23" height="23" viewBox="0 0 23 23" fill="none" xmlns="http://www.w3.org/2000/svg">
<g clip-path="url(#clip0)">
<path d="M12.9375 20.125H9.10566C8.84062 20.125 8.625 19.9094 8.625 19.6443C8.625 19.3793 8.84062 19.1637 9.10566 19.1637H12.9375C13.7281 19.1637 14.375 18.5168 14.375 17.7262V12.9375C14.375 12.6725 14.5906 12.4568 14.8557 12.4568C15.1207 12.4568 15.3363 12.6725 15.3363 12.9375V17.7307C15.3318 19.0514 14.2582 20.125 12.9375 20.125Z" fill="black"/>
<path d="M22.5194 10.5432H12.9376C12.6725 10.5432 12.4569 10.3276 12.4569 10.0625C12.4569 9.79747 12.6725 9.58185 12.9376 9.58185H22.5194C22.7845 9.58185 23.0001 9.79747 23.0001 10.0625C23.0001 10.3276 22.7845 10.5432 22.5194 10.5432Z" fill="black"/>
<path d="M7.66816 23C7.45703 23 7.25039 22.9641 7.05723 22.8967L1.31621 20.983C0.530078 20.718 0 19.9902 0 19.1682V1.91816C0 0.858008 0.858008 0 1.91816 0C2.1293 0 2.33594 0.0359375 2.5291 0.10332L8.27012 2.01699C9.05625 2.27754 9.58633 3.00977 9.58633 3.83184V21.0818C9.58184 22.142 8.72383 23 7.66816 23ZM1.91816 0.956836C1.38809 0.956836 0.961328 1.38809 0.961328 1.91367V19.1637C0.961328 19.5725 1.22637 19.9363 1.62168 20.0711L7.37168 21.9893C8.00059 22.2139 8.62949 21.7107 8.62949 21.0818V3.83184C8.62949 3.41855 8.36445 3.05469 7.96914 2.92441L2.21914 1.00625C2.11582 0.974805 2.01699 0.956836 1.91816 0.956836Z" fill="black"/>
<path d="M14.8557 7.66816C14.5906 7.66816 14.375 7.45254 14.375 7.1875V2.39434C14.375 1.60371 13.7281 0.956836 12.9375 0.956836H1.91816C1.65313 0.956836 1.4375 0.741211 1.4375 0.476172C1.4375 0.211133 1.65313 0 1.91816 0H12.9375C14.2582 0 15.3318 1.07363 15.3318 2.39434V7.1875C15.3318 7.45254 15.1207 7.66816 14.8557 7.66816Z" fill="black"/>
<path d="M18.6875 14.375C18.5662 14.375 18.4404 14.3301 18.3461 14.2357C18.1574 14.0471 18.1574 13.7461 18.3461 13.5574L21.841 10.0625L18.3461 6.56757C18.1574 6.37889 18.1574 6.07792 18.3461 5.88925C18.5348 5.70057 18.8357 5.70057 19.0244 5.88925L22.8562 9.72108C23.0449 9.90975 23.0449 10.2107 22.8562 10.3994L19.0244 14.2312C18.9346 14.3301 18.8088 14.375 18.6875 14.375Z" fill="black"/>
</g>
<defs>
<clipPath id="clip0">
<rect width="23" height="23" fill="white"/>
</clipPath>
</defs>
</svg>
