<?xml version="1.0" encoding="utf-8"?>
<!-- Generator: Adobe Illustrator 25.0.0, SVG Export Plug-In . SVG Version: 6.00 Build 0)  -->
<svg version="1.1" id="Capa_1" xmlns="http://www.w3.org/2000/svg" xmlns:xlink="http://www.w3.org/1999/xlink" x="0px" y="0px"
	 viewBox="0 0 512 512" style="enable-background:new 0 0 512 512;" xml:space="preserve">
<style type="text/css">
	.st0{clip-path:url(#SVGID_2_);}
	.st1{fill:#FFFFFF;}
</style>
<g>
	<defs>
		<rect id="SVGID_1_" x="8" y="6" width="497" height="497"/>
	</defs>
	<clipPath id="SVGID_2_">
		<use xlink:href="#SVGID_1_"  style="overflow:visible;"/>
	</clipPath>
	<g class="st0">
		<path class="st1" d="M287.6,440.9h-82.8c-5.7,0-10.4-4.7-10.4-10.4c0-5.7,4.7-10.4,10.4-10.4h82.8c17.1,0,31.1-14,31.1-31.1V285.6
			c0-5.7,4.7-10.4,10.4-10.4c5.7,0,10.4,4.7,10.4,10.4v103.6C339.3,417.7,316.1,440.9,287.6,440.9z"/>
		<path class="st1" d="M494.6,233.8H287.6c-5.7,0-10.4-4.7-10.4-10.4c0-5.7,4.7-10.4,10.4-10.4h207.1c5.7,0,10.4,4.7,10.4,10.4
			C505,229.2,500.3,233.8,494.6,233.8z"/>
		<path class="st1" d="M173.7,503c-4.6,0-9-0.8-13.2-2.2L36.4,459.4C19.4,453.7,8,438,8,420.2V47.5C8,24.5,26.5,6,49.4,6
			c4.6,0,9,0.8,13.2,2.2l124.1,41.4c17,5.6,28.4,21.5,28.4,39.2v372.8C215,484.5,196.5,503,173.7,503z M49.4,26.7
			C38,26.7,28.8,36,28.8,47.4v372.8c0,8.8,5.7,16.7,14.3,19.6l124.3,41.5c13.6,4.9,27.2-6,27.2-19.6V88.8c0-8.9-5.7-16.8-14.3-19.6
			L55.9,27.7C53.7,27.1,51.6,26.7,49.4,26.7z"/>
		<path class="st1" d="M329,171.7c-5.7,0-10.4-4.7-10.4-10.4V57.7c0-17.1-14-31.1-31.1-31.1H49.4C43.7,26.7,39,22,39,16.3
			S43.7,6,49.4,6h238.1c28.5,0,51.7,23.2,51.7,51.7v103.6C339.3,167,334.7,171.7,329,171.7z"/>
		<path class="st1" d="M411.8,316.6c-2.6,0-5.3-1-7.4-3c-4.1-4.1-4.1-10.6,0-14.7l75.5-75.5l-75.5-75.5c-4.1-4.1-4.1-10.6,0-14.7
			c4.1-4.1,10.6-4.1,14.7,0l82.8,82.8c4.1,4.1,4.1,10.6,0,14.7l-82.8,82.8C417.1,315.7,414.4,316.6,411.8,316.6z"/>
	</g>
</g>
</svg>
