<?xml version="1.0" encoding="utf-8"?>
<!-- Generator: Adobe Illustrator 24.2.0, SVG Export Plug-In . SVG Version: 6.00 Build 0)  -->
<svg version="1.1" id="Capa_1" xmlns="http://www.w3.org/2000/svg" xmlns:xlink="http://www.w3.org/1999/xlink" x="0px" y="0px"
	 viewBox="0 0 300 300" style="enable-background:new 0 0 300 300;" xml:space="preserve">
<style type="text/css">
	.st0{fill:#FFA700;}
	.st1{fill:#FFFFFF;}
</style>
<g id="Group_14" transform="translate(-542 -261)">
	<circle id="Ellipse_3" class="st0" cx="692" cy="411" r="150"/>
	<path id="Icon_awesome-pen" class="st1" d="M699.1,372.5l29.5,29.5l-64.1,64.1l-26.3,2.9c-3,0.3-5.8-1.8-6.1-4.9c0-0.4,0-0.8,0-1.2
		l3-26.4L699.1,372.5z M746.9,368.1L733,354.2c-4.3-4.3-11.3-4.3-15.7,0c0,0,0,0,0,0l-13,13l29.5,29.5l13-13
		C751.2,379.5,751.2,372.4,746.9,368.1C746.9,368.1,746.9,368.1,746.9,368.1L746.9,368.1z"/>
</g>
</svg>
