<svg width="27" height="27" viewBox="0 0 27 27" fill="none" xmlns="http://www.w3.org/2000/svg">
<g clip-path="url(#clip0)">
<path d="M19.6858 27C15.6517 27 12.3716 23.7199 12.3716 19.6857C12.3716 15.6516 15.6517 12.3715 19.6858 12.3715C23.72 12.3715 27.0001 15.6568 27.0001 19.6857C27.0001 23.7147 23.72 27 19.6858 27ZM19.6858 14.0643C16.5851 14.0643 14.0591 16.5902 14.0591 19.691C14.0591 22.7918 16.5851 25.3125 19.6858 25.3125C22.7866 25.3125 25.3126 22.7865 25.3126 19.6857C25.3126 16.585 22.7866 14.0643 19.6858 14.0643Z" fill="black"/>
<path d="M19.6855 23.625C19.2215 23.625 18.8418 23.2453 18.8418 22.7812V16.5955C18.8418 16.1314 19.2215 15.7518 19.6855 15.7518C20.1496 15.7518 20.5293 16.1314 20.5293 16.5955V22.7812C20.5293 23.2453 20.1549 23.625 19.6855 23.625Z" fill="black"/>
<path d="M22.7814 20.5295H16.5957C16.1316 20.5295 15.752 20.1498 15.752 19.6857C15.752 19.2217 16.1316 18.842 16.5957 18.842H22.7814C23.2455 18.842 23.6252 19.2217 23.6252 19.6857C23.6252 20.1498 23.2455 20.5295 22.7814 20.5295Z" fill="black"/>
<path d="M10.3412 23.625H3.09551C1.38691 23.625 0 22.2381 0 20.5295V3.09551C0 1.38691 1.38691 0 3.09551 0H16.0312C17.7398 0 19.1268 1.38691 19.1268 3.09551V9.9457C19.1268 10.4098 18.7471 10.7895 18.283 10.7895C17.8189 10.7895 17.4393 10.4098 17.4393 9.9457V3.09551C17.4393 2.32031 16.8064 1.6875 16.0312 1.6875H3.09551C2.32031 1.6875 1.6875 2.32031 1.6875 3.09551V20.5348C1.6875 21.3047 2.32031 21.9375 3.09551 21.9375H10.3412C10.8053 21.9375 11.185 22.3172 11.185 22.7812C11.185 23.2453 10.8053 23.625 10.3412 23.625Z" fill="black"/>
<path d="M14.908 10.6893H4.21875C3.75469 10.6893 3.375 10.3096 3.375 9.84551C3.375 9.38144 3.75469 9.00175 4.21875 9.00175H14.908C15.3721 9.00175 15.7518 9.38144 15.7518 9.84551C15.7518 10.3096 15.3721 10.6893 14.908 10.6893Z" fill="black"/>
<path d="M10.4045 15.1875H4.21875C3.75469 15.1875 3.375 14.8078 3.375 14.3438C3.375 13.8797 3.75469 13.5 4.21875 13.5H10.4045C10.8686 13.5 11.2482 13.8797 11.2482 14.3438C11.2482 14.8078 10.8738 15.1875 10.4045 15.1875Z" fill="black"/>
<path d="M9.28125 6.18575H4.21875C3.75469 6.18575 3.375 5.80606 3.375 5.342C3.375 4.87793 3.75469 4.49825 4.21875 4.49825H9.28125C9.74531 4.49825 10.125 4.87793 10.125 5.342C10.125 5.80606 9.74531 6.18575 9.28125 6.18575Z" fill="black"/>
</g>
<defs>
<clipPath id="clip0">
<rect width="27" height="27" fill="white"/>
</clipPath>
</defs>
</svg>
